<svg width="390" height="844" viewBox="0 0 390 844" fill="none" xmlns="http://www.w3.org/2000/svg">
<g clip-path="url(#clip0_5_75)">
<rect width="390" height="844" fill="white"/>
<line x1="-0.453885" y1="843.79" x2="389.546" y2="-0.209702" stroke="black"/>
<line x1="0.453885" y1="-0.209734" x2="390.454" y2="843.79" stroke="black"/>
<rect x="86" y="84" width="217" height="46" fill="#D9D9D9"/>
<line x1="88.9148" y1="127.507" x2="302.915" y2="90.5073" stroke="black"/>
<line x1="86.084" y1="90.5071" x2="303.084" y2="127.507" stroke="black"/>
<rect x="49" y="484" width="292" height="55" rx="27.5" fill="#D9D9D9"/>
<path d="M173.07 513.88L167 519.94V522H169.06L175.12 515.93M176.7 513.58L175.42 512.3C175.32 512.19 175.18 512.13 175.04 512.13C174.89 512.14 174.75 512.19 174.65 512.3L173.65 513.3L175.7 515.3L176.7 514.3C176.89 514.1 176.89 513.78 176.7 513.58ZM165 518H158V508L166 513L174 508V510H176V506C176 504.9 175.1 504 174 504H158C156.9 504 156 504.9 156 506V518C156 519.1 156.9 520 158 520H165V518ZM174 506L166 511L158 506H174Z" fill="black"/>
<path d="M191.383 514.625C191.383 514.359 191.341 514.125 191.258 513.922C191.18 513.714 191.039 513.526 190.836 513.359C190.638 513.193 190.362 513.034 190.008 512.883C189.659 512.732 189.216 512.578 188.68 512.422C188.117 512.255 187.609 512.07 187.156 511.867C186.703 511.659 186.315 511.422 185.992 511.156C185.669 510.891 185.422 510.586 185.25 510.242C185.078 509.898 184.992 509.505 184.992 509.062C184.992 508.62 185.083 508.211 185.266 507.836C185.448 507.461 185.708 507.135 186.047 506.859C186.391 506.578 186.799 506.359 187.273 506.203C187.747 506.047 188.276 505.969 188.859 505.969C189.714 505.969 190.438 506.133 191.031 506.461C191.63 506.784 192.086 507.208 192.398 507.734C192.711 508.255 192.867 508.812 192.867 509.406H191.367C191.367 508.979 191.276 508.602 191.094 508.273C190.911 507.94 190.635 507.68 190.266 507.492C189.896 507.299 189.427 507.203 188.859 507.203C188.323 507.203 187.88 507.284 187.531 507.445C187.182 507.607 186.922 507.826 186.75 508.102C186.583 508.378 186.5 508.693 186.5 509.047C186.5 509.286 186.549 509.505 186.648 509.703C186.753 509.896 186.911 510.076 187.125 510.242C187.344 510.409 187.62 510.562 187.953 510.703C188.292 510.844 188.695 510.979 189.164 511.109C189.81 511.292 190.367 511.495 190.836 511.719C191.305 511.943 191.69 512.195 191.992 512.477C192.299 512.753 192.526 513.068 192.672 513.422C192.823 513.771 192.898 514.167 192.898 514.609C192.898 515.073 192.805 515.492 192.617 515.867C192.43 516.242 192.161 516.562 191.812 516.828C191.464 517.094 191.044 517.299 190.555 517.445C190.07 517.586 189.529 517.656 188.93 517.656C188.404 517.656 187.885 517.583 187.375 517.438C186.87 517.292 186.409 517.073 185.992 516.781C185.581 516.49 185.25 516.13 185 515.703C184.755 515.271 184.633 514.771 184.633 514.203H186.133C186.133 514.594 186.208 514.93 186.359 515.211C186.51 515.487 186.716 515.716 186.977 515.898C187.242 516.081 187.542 516.216 187.875 516.305C188.214 516.388 188.565 516.43 188.93 516.43C189.456 516.43 189.901 516.357 190.266 516.211C190.63 516.065 190.906 515.857 191.094 515.586C191.286 515.315 191.383 514.995 191.383 514.625ZM196.438 506.125V517.5H194.93V506.125H196.438ZM207.586 511.836V516C207.445 516.208 207.221 516.443 206.914 516.703C206.607 516.958 206.182 517.182 205.641 517.375C205.104 517.562 204.411 517.656 203.562 517.656C202.87 517.656 202.232 517.536 201.648 517.297C201.07 517.052 200.568 516.698 200.141 516.234C199.719 515.766 199.391 515.198 199.156 514.531C198.927 513.859 198.812 513.099 198.812 512.25V511.367C198.812 510.518 198.911 509.76 199.109 509.094C199.312 508.427 199.609 507.862 200 507.398C200.391 506.93 200.87 506.576 201.438 506.336C202.005 506.091 202.656 505.969 203.391 505.969C204.26 505.969 204.987 506.12 205.57 506.422C206.159 506.719 206.617 507.13 206.945 507.656C207.279 508.182 207.492 508.781 207.586 509.453H206.078C206.01 509.042 205.875 508.667 205.672 508.328C205.474 507.99 205.19 507.719 204.82 507.516C204.451 507.307 203.974 507.203 203.391 507.203C202.865 507.203 202.409 507.299 202.023 507.492C201.638 507.685 201.32 507.961 201.07 508.32C200.82 508.68 200.633 509.115 200.508 509.625C200.388 510.135 200.328 510.711 200.328 511.352V512.25C200.328 512.906 200.404 513.492 200.555 514.008C200.711 514.523 200.932 514.964 201.219 515.328C201.505 515.688 201.846 515.961 202.242 516.148C202.643 516.336 203.086 516.43 203.57 516.43C204.107 516.43 204.542 516.385 204.875 516.297C205.208 516.203 205.469 516.094 205.656 515.969C205.844 515.839 205.987 515.716 206.086 515.602V513.055H203.453V511.836H207.586ZM218.836 506.125V517.5H217.32L211.594 508.727V517.5H210.086V506.125H211.594L217.344 514.922V506.125H218.836ZM231.984 506.125H233.484V513.82C233.484 514.674 233.294 515.385 232.914 515.953C232.534 516.521 232.029 516.948 231.398 517.234C230.773 517.516 230.094 517.656 229.359 517.656C228.589 517.656 227.891 517.516 227.266 517.234C226.646 516.948 226.154 516.521 225.789 515.953C225.43 515.385 225.25 514.674 225.25 513.82V506.125H226.742V513.82C226.742 514.414 226.852 514.904 227.07 515.289C227.289 515.674 227.594 515.961 227.984 516.148C228.38 516.336 228.839 516.43 229.359 516.43C229.885 516.43 230.344 516.336 230.734 516.148C231.13 515.961 231.438 515.674 231.656 515.289C231.875 514.904 231.984 514.414 231.984 513.82V506.125ZM240.047 513.039H237.008V511.812H240.047C240.635 511.812 241.112 511.719 241.477 511.531C241.841 511.344 242.107 511.083 242.273 510.75C242.445 510.417 242.531 510.036 242.531 509.609C242.531 509.219 242.445 508.852 242.273 508.508C242.107 508.164 241.841 507.888 241.477 507.68C241.112 507.466 240.635 507.359 240.047 507.359H237.359V517.5H235.852V506.125H240.047C240.906 506.125 241.633 506.273 242.227 506.57C242.82 506.867 243.271 507.279 243.578 507.805C243.885 508.326 244.039 508.922 244.039 509.594C244.039 510.323 243.885 510.945 243.578 511.461C243.271 511.977 242.82 512.37 242.227 512.641C241.633 512.906 240.906 513.039 240.047 513.039Z" fill="black"/>
<rect x="49" y="573" width="292" height="55" rx="27.5" fill="#D9D9D9"/>
<path d="M161 604V601H154V597H161V594L166 599L161 604ZM161 589H170C170.53 589 171.039 589.211 171.414 589.586C171.789 589.961 172 590.47 172 591V607C172 607.53 171.789 608.039 171.414 608.414C171.039 608.789 170.53 609 170 609H161C160.47 609 159.961 608.789 159.586 608.414C159.211 608.039 159 607.53 159 607V605H161V607H170V591H161V593H159V591C159 590.47 159.211 589.961 159.586 589.586C159.961 589.211 160.47 589 161 589Z" fill="black"/>
<path d="M185.383 601.625C185.383 601.359 185.341 601.125 185.258 600.922C185.18 600.714 185.039 600.526 184.836 600.359C184.638 600.193 184.362 600.034 184.008 599.883C183.659 599.732 183.216 599.578 182.68 599.422C182.117 599.255 181.609 599.07 181.156 598.867C180.703 598.659 180.315 598.422 179.992 598.156C179.669 597.891 179.422 597.586 179.25 597.242C179.078 596.898 178.992 596.505 178.992 596.062C178.992 595.62 179.083 595.211 179.266 594.836C179.448 594.461 179.708 594.135 180.047 593.859C180.391 593.578 180.799 593.359 181.273 593.203C181.747 593.047 182.276 592.969 182.859 592.969C183.714 592.969 184.438 593.133 185.031 593.461C185.63 593.784 186.086 594.208 186.398 594.734C186.711 595.255 186.867 595.812 186.867 596.406H185.367C185.367 595.979 185.276 595.602 185.094 595.273C184.911 594.94 184.635 594.68 184.266 594.492C183.896 594.299 183.427 594.203 182.859 594.203C182.323 594.203 181.88 594.284 181.531 594.445C181.182 594.607 180.922 594.826 180.75 595.102C180.583 595.378 180.5 595.693 180.5 596.047C180.5 596.286 180.549 596.505 180.648 596.703C180.753 596.896 180.911 597.076 181.125 597.242C181.344 597.409 181.62 597.562 181.953 597.703C182.292 597.844 182.695 597.979 183.164 598.109C183.81 598.292 184.367 598.495 184.836 598.719C185.305 598.943 185.69 599.195 185.992 599.477C186.299 599.753 186.526 600.068 186.672 600.422C186.823 600.771 186.898 601.167 186.898 601.609C186.898 602.073 186.805 602.492 186.617 602.867C186.43 603.242 186.161 603.562 185.812 603.828C185.464 604.094 185.044 604.299 184.555 604.445C184.07 604.586 183.529 604.656 182.93 604.656C182.404 604.656 181.885 604.583 181.375 604.438C180.87 604.292 180.409 604.073 179.992 603.781C179.581 603.49 179.25 603.13 179 602.703C178.755 602.271 178.633 601.771 178.633 601.203H180.133C180.133 601.594 180.208 601.93 180.359 602.211C180.51 602.487 180.716 602.716 180.977 602.898C181.242 603.081 181.542 603.216 181.875 603.305C182.214 603.388 182.565 603.43 182.93 603.43C183.456 603.43 183.901 603.357 184.266 603.211C184.63 603.065 184.906 602.857 185.094 602.586C185.286 602.315 185.383 601.995 185.383 601.625ZM190.438 593.125V604.5H188.93V593.125H190.438ZM201.586 598.836V603C201.445 603.208 201.221 603.443 200.914 603.703C200.607 603.958 200.182 604.182 199.641 604.375C199.104 604.562 198.411 604.656 197.562 604.656C196.87 604.656 196.232 604.536 195.648 604.297C195.07 604.052 194.568 603.698 194.141 603.234C193.719 602.766 193.391 602.198 193.156 601.531C192.927 600.859 192.812 600.099 192.812 599.25V598.367C192.812 597.518 192.911 596.76 193.109 596.094C193.312 595.427 193.609 594.862 194 594.398C194.391 593.93 194.87 593.576 195.438 593.336C196.005 593.091 196.656 592.969 197.391 592.969C198.26 592.969 198.987 593.12 199.57 593.422C200.159 593.719 200.617 594.13 200.945 594.656C201.279 595.182 201.492 595.781 201.586 596.453H200.078C200.01 596.042 199.875 595.667 199.672 595.328C199.474 594.99 199.19 594.719 198.82 594.516C198.451 594.307 197.974 594.203 197.391 594.203C196.865 594.203 196.409 594.299 196.023 594.492C195.638 594.685 195.32 594.961 195.07 595.32C194.82 595.68 194.633 596.115 194.508 596.625C194.388 597.135 194.328 597.711 194.328 598.352V599.25C194.328 599.906 194.404 600.492 194.555 601.008C194.711 601.523 194.932 601.964 195.219 602.328C195.505 602.688 195.846 602.961 196.242 603.148C196.643 603.336 197.086 603.43 197.57 603.43C198.107 603.43 198.542 603.385 198.875 603.297C199.208 603.203 199.469 603.094 199.656 602.969C199.844 602.839 199.987 602.716 200.086 602.602V600.055H197.453V598.836H201.586ZM212.836 593.125V604.5H211.32L205.594 595.727V604.5H204.086V593.125H205.594L211.344 601.922V593.125H212.836ZM221.094 593.125V604.5H219.586V593.125H221.094ZM232.586 593.125V604.5H231.07L225.344 595.727V604.5H223.836V593.125H225.344L231.094 601.922V593.125H232.586Z" fill="black"/>
</g>
<defs>
<clipPath id="clip0_5_75">
<rect width="390" height="844" fill="white"/>
</clipPath>
</defs>
</svg>
