<svg width="1363" height="301" viewBox="0 0 1363 301" fill="none" xmlns="http://www.w3.org/2000/svg">
<rect width="1363" height="301" rx="15" fill="#F0F0F0"/>
<path d="M0 15C0 6.71573 6.71573 0 15 0H37V301H15C6.71573 301 0 294.284 0 286V15Z" fill="#03A9F4"/>
<path d="M113.914 104.898V144H104.488V104.898H113.914ZM125.677 104.898V112.176H92.9937V104.898H125.677ZM122.481 129.767V129.203C122.481 127.072 122.785 125.112 123.394 123.321C124.003 121.513 124.898 119.946 126.08 118.622C127.261 117.297 128.72 116.267 130.457 115.533C132.194 114.781 134.199 114.405 136.473 114.405C138.764 114.405 140.778 114.781 142.515 115.533C144.27 116.267 145.738 117.297 146.919 118.622C148.101 119.946 148.996 121.513 149.605 123.321C150.214 125.112 150.518 127.072 150.518 129.203V129.767C150.518 131.879 150.214 133.84 149.605 135.648C148.996 137.438 148.101 139.005 146.919 140.348C145.738 141.673 144.279 142.702 142.542 143.436C140.805 144.17 138.8 144.537 136.526 144.537C134.253 144.537 132.238 144.17 130.484 143.436C128.729 142.702 127.261 141.673 126.08 140.348C124.898 139.005 124.003 137.438 123.394 135.648C122.785 133.84 122.481 131.879 122.481 129.767ZM131.531 129.203V129.767C131.531 130.859 131.612 131.879 131.773 132.828C131.934 133.777 132.203 134.61 132.579 135.326C132.955 136.024 133.465 136.57 134.109 136.964C134.754 137.358 135.56 137.555 136.526 137.555C137.475 137.555 138.263 137.358 138.89 136.964C139.534 136.57 140.044 136.024 140.42 135.326C140.796 134.61 141.065 133.777 141.226 132.828C141.387 131.879 141.468 130.859 141.468 129.767V129.203C141.468 128.146 141.387 127.153 141.226 126.222C141.065 125.273 140.796 124.44 140.42 123.724C140.044 122.99 139.534 122.417 138.89 122.005C138.245 121.594 137.439 121.388 136.473 121.388C135.524 121.388 134.727 121.594 134.083 122.005C133.456 122.417 132.955 122.99 132.579 123.724C132.203 124.44 131.934 125.273 131.773 126.222C131.612 127.153 131.531 128.146 131.531 129.203ZM171.519 136.937V114.942H180.596V144H172.11L171.519 136.937ZM172.378 131.029L174.742 130.975C174.742 132.927 174.509 134.735 174.043 136.4C173.578 138.047 172.889 139.479 171.976 140.697C171.08 141.914 169.97 142.863 168.646 143.543C167.339 144.206 165.826 144.537 164.107 144.537C162.675 144.537 161.359 144.34 160.159 143.946C158.978 143.535 157.957 142.899 157.098 142.04C156.238 141.162 155.567 140.043 155.083 138.683C154.618 137.304 154.385 135.657 154.385 133.741V114.942H163.436V133.795C163.436 134.439 163.516 134.994 163.677 135.46C163.838 135.925 164.071 136.319 164.375 136.642C164.68 136.946 165.056 137.179 165.503 137.34C165.969 137.483 166.497 137.555 167.088 137.555C168.449 137.555 169.514 137.268 170.284 136.695C171.054 136.122 171.591 135.344 171.895 134.359C172.217 133.374 172.378 132.264 172.378 131.029ZM194.722 122.14V144H185.672V114.942H194.131L194.722 122.14ZM203.316 114.728L203.155 123.133C202.797 123.097 202.313 123.053 201.705 122.999C201.096 122.945 200.586 122.918 200.174 122.918C199.118 122.918 198.204 123.044 197.435 123.294C196.683 123.527 196.056 123.885 195.555 124.369C195.071 124.834 194.713 125.425 194.48 126.141C194.266 126.857 194.167 127.69 194.185 128.639L192.547 127.564C192.547 125.613 192.735 123.84 193.111 122.247C193.505 120.636 194.06 119.248 194.776 118.084C195.492 116.903 196.36 115.999 197.381 115.372C198.401 114.728 199.547 114.405 200.818 114.405C201.266 114.405 201.705 114.432 202.134 114.486C202.582 114.54 202.976 114.62 203.316 114.728ZM215.992 114.942V144H206.915V114.942H215.992ZM206.377 107.45C206.377 106.161 206.843 105.104 207.774 104.281C208.705 103.457 209.913 103.045 211.399 103.045C212.885 103.045 214.094 103.457 215.025 104.281C215.956 105.104 216.421 106.161 216.421 107.45C216.421 108.739 215.956 109.795 215.025 110.619C214.094 111.442 212.885 111.854 211.399 111.854C209.913 111.854 208.705 111.442 207.774 110.619C206.843 109.795 206.377 108.739 206.377 107.45ZM236.805 135.836C236.805 135.335 236.635 134.905 236.294 134.547C235.972 134.171 235.399 133.831 234.576 133.526C233.752 133.204 232.597 132.882 231.111 132.56C229.697 132.255 228.363 131.852 227.11 131.351C225.875 130.85 224.791 130.241 223.86 129.525C222.929 128.809 222.195 127.958 221.658 126.974C221.139 125.989 220.879 124.861 220.879 123.59C220.879 122.354 221.139 121.191 221.658 120.099C222.195 118.989 222.974 118.013 223.995 117.171C225.033 116.312 226.295 115.641 227.781 115.157C229.267 114.656 230.959 114.405 232.857 114.405C235.471 114.405 237.727 114.808 239.625 115.614C241.522 116.402 242.981 117.512 244.002 118.944C245.04 120.358 245.56 121.996 245.56 123.858H236.509C236.509 123.124 236.384 122.498 236.133 121.979C235.901 121.459 235.516 121.065 234.979 120.797C234.441 120.51 233.725 120.367 232.83 120.367C232.203 120.367 231.631 120.484 231.111 120.716C230.61 120.949 230.207 121.271 229.903 121.683C229.598 122.095 229.446 122.578 229.446 123.133C229.446 123.527 229.536 123.885 229.715 124.208C229.912 124.512 230.207 124.798 230.601 125.067C230.995 125.318 231.496 125.55 232.105 125.765C232.714 125.962 233.448 126.141 234.307 126.302C236.259 126.66 238.085 127.171 239.786 127.833C241.486 128.495 242.865 129.435 243.921 130.653C244.996 131.87 245.533 133.508 245.533 135.567C245.533 136.856 245.237 138.047 244.646 139.139C244.056 140.213 243.205 141.162 242.095 141.986C240.985 142.792 239.651 143.418 238.094 143.866C236.536 144.313 234.782 144.537 232.83 144.537C230.055 144.537 227.71 144.045 225.794 143.06C223.878 142.057 222.428 140.804 221.443 139.3C220.477 137.778 219.993 136.239 219.993 134.681H228.426C228.462 135.576 228.676 136.31 229.07 136.883C229.482 137.456 230.028 137.877 230.708 138.146C231.389 138.414 232.177 138.548 233.072 138.548C233.895 138.548 234.576 138.432 235.113 138.199C235.668 137.966 236.089 137.653 236.375 137.259C236.661 136.847 236.805 136.373 236.805 135.836ZM265.083 114.942V121.227H247.574V114.942H265.083ZM251.253 107.718H260.303V134.52C260.303 135.29 260.393 135.89 260.572 136.319C260.751 136.731 261.055 137.027 261.485 137.206C261.932 137.367 262.523 137.447 263.257 137.447C263.777 137.447 264.206 137.438 264.546 137.42C264.887 137.385 265.209 137.34 265.513 137.286V143.758C264.743 144.009 263.938 144.197 263.096 144.322C262.255 144.465 261.36 144.537 260.411 144.537C258.477 144.537 256.821 144.233 255.442 143.624C254.082 143.015 253.043 142.057 252.327 140.75C251.611 139.444 251.253 137.743 251.253 135.648V107.718ZM277.598 140.589L285.118 114.942H294.839L283.157 148.324C282.907 149.058 282.575 149.846 282.164 150.687C281.752 151.546 281.188 152.361 280.472 153.131C279.756 153.901 278.833 154.527 277.706 155.011C276.596 155.494 275.217 155.736 273.57 155.736C272.693 155.736 272.048 155.691 271.636 155.602C271.242 155.53 270.634 155.396 269.81 155.199V148.727C270.043 148.727 270.24 148.727 270.401 148.727C270.58 148.727 270.777 148.727 270.992 148.727C271.958 148.727 272.728 148.628 273.301 148.431C273.892 148.234 274.34 147.948 274.644 147.572C274.966 147.196 275.217 146.739 275.396 146.202L277.598 140.589ZM275.691 114.942L281.412 135.272L282.405 144.859H276.336L265.997 114.942H275.691Z" fill="black"/>
<path d="M104.339 59.3726L97.5713 80H92.1196L101.365 55.1172H104.834L104.339 59.3726ZM109.961 80L103.177 59.3726L102.63 55.1172H106.133L115.43 80H109.961ZM109.654 70.7373V74.7534H96.5117V70.7373H109.654ZM127.427 74.8901C127.427 74.5369 127.325 74.2179 127.12 73.9331C126.915 73.6483 126.533 73.3862 125.975 73.147C125.428 72.8963 124.636 72.6685 123.599 72.4634C122.665 72.2583 121.793 72.002 120.984 71.6943C120.187 71.3753 119.492 70.9937 118.899 70.5493C118.318 70.105 117.863 69.5809 117.532 68.9771C117.202 68.3618 117.037 67.6611 117.037 66.875C117.037 66.1003 117.202 65.3711 117.532 64.6875C117.874 64.0039 118.358 63.4001 118.985 62.876C119.623 62.3405 120.398 61.9246 121.309 61.6284C122.232 61.3208 123.269 61.167 124.419 61.167C126.026 61.167 127.404 61.4233 128.555 61.936C129.717 62.4487 130.606 63.1551 131.221 64.0552C131.848 64.9438 132.161 65.9578 132.161 67.0972H127.239C127.239 66.6187 127.137 66.1914 126.932 65.8154C126.738 65.4281 126.43 65.1261 126.009 64.9097C125.599 64.6818 125.063 64.5679 124.402 64.5679C123.855 64.5679 123.383 64.6647 122.984 64.8584C122.585 65.0407 122.278 65.2913 122.061 65.6104C121.856 65.918 121.753 66.2598 121.753 66.6357C121.753 66.9206 121.81 67.1769 121.924 67.4048C122.05 67.6213 122.249 67.8206 122.522 68.0029C122.796 68.1852 123.149 68.3561 123.582 68.5156C124.026 68.6637 124.573 68.8005 125.223 68.9258C126.556 69.1992 127.746 69.5581 128.794 70.0024C129.843 70.4354 130.674 71.0278 131.29 71.7798C131.905 72.5203 132.212 73.4945 132.212 74.7021C132.212 75.5225 132.03 76.2744 131.666 76.958C131.301 77.6416 130.777 78.2397 130.093 78.7524C129.41 79.2537 128.589 79.6468 127.632 79.9316C126.687 80.2051 125.621 80.3418 124.437 80.3418C122.716 80.3418 121.258 80.0342 120.062 79.4189C118.877 78.8037 117.977 78.0233 117.361 77.0776C116.757 76.1206 116.456 75.1408 116.456 74.1382H121.121C121.144 74.8104 121.315 75.3516 121.634 75.7617C121.964 76.1719 122.38 76.4681 122.881 76.6504C123.394 76.8327 123.947 76.9238 124.539 76.9238C125.177 76.9238 125.707 76.8384 126.128 76.6675C126.55 76.4852 126.869 76.2459 127.085 75.9497C127.313 75.6421 127.427 75.2889 127.427 74.8901ZM140.33 65.3369V80H135.391V61.5088H140.022L140.33 65.3369ZM139.646 70.105H138.279C138.279 68.8175 138.433 67.6326 138.741 66.5503C139.06 65.4565 139.521 64.5109 140.125 63.7134C140.74 62.9045 141.498 62.2778 142.398 61.8335C143.298 61.3892 144.34 61.167 145.525 61.167C146.346 61.167 147.098 61.2923 147.781 61.543C148.465 61.7822 149.052 62.1639 149.542 62.688C150.043 63.2007 150.43 63.8729 150.704 64.7046C150.977 65.5249 151.114 66.5104 151.114 67.6611V80H146.192V68.208C146.192 67.3649 146.078 66.7155 145.85 66.2598C145.622 65.804 145.298 65.485 144.876 65.3027C144.466 65.1204 143.97 65.0293 143.389 65.0293C142.751 65.0293 142.193 65.1603 141.714 65.4224C141.247 65.6844 140.86 66.049 140.552 66.5161C140.245 66.9718 140.017 67.5073 139.869 68.1226C139.721 68.7378 139.646 69.3986 139.646 70.105ZM150.652 69.541L148.892 69.7632C148.892 68.5555 149.04 67.4333 149.336 66.3965C149.644 65.3597 150.094 64.4482 150.687 63.6621C151.29 62.876 152.037 62.2664 152.925 61.8335C153.814 61.3892 154.839 61.167 156.001 61.167C156.89 61.167 157.699 61.298 158.428 61.5601C159.157 61.8107 159.778 62.2152 160.291 62.7734C160.815 63.3203 161.214 64.0381 161.487 64.9268C161.772 65.8154 161.915 66.9035 161.915 68.1909V80H156.976V68.1909C156.976 67.3364 156.862 66.687 156.634 66.2427C156.417 65.7869 156.098 65.4736 155.677 65.3027C155.267 65.1204 154.777 65.0293 154.207 65.0293C153.615 65.0293 153.096 65.1489 152.652 65.3882C152.208 65.616 151.837 65.9351 151.541 66.3452C151.245 66.7554 151.023 67.2339 150.875 67.7808C150.726 68.3162 150.652 68.903 150.652 69.541ZM175.706 75.8301V67.5928C175.706 67.0003 175.609 66.4933 175.416 66.0718C175.222 65.6388 174.92 65.3027 174.51 65.0635C174.111 64.8242 173.593 64.7046 172.955 64.7046C172.408 64.7046 171.935 64.8014 171.536 64.9951C171.137 65.1774 170.83 65.4451 170.613 65.7983C170.397 66.1401 170.289 66.5446 170.289 67.0117H165.367C165.367 66.2256 165.549 65.4793 165.914 64.7729C166.278 64.0666 166.808 63.4456 167.503 62.9102C168.198 62.3633 169.024 61.936 169.981 61.6284C170.949 61.3208 172.032 61.167 173.228 61.167C174.664 61.167 175.94 61.4062 177.056 61.8848C178.173 62.3633 179.05 63.0811 179.688 64.0381C180.337 64.9951 180.662 66.1914 180.662 67.627V75.5396C180.662 76.5535 180.725 77.3853 180.85 78.0347C180.975 78.6727 181.158 79.231 181.397 79.7095V80H176.424C176.185 79.4987 176.002 78.8721 175.877 78.1201C175.763 77.3568 175.706 76.5934 175.706 75.8301ZM176.355 68.7378L176.39 71.5234H173.638C172.989 71.5234 172.425 71.5975 171.946 71.7456C171.468 71.8937 171.075 72.1045 170.767 72.3779C170.459 72.64 170.232 72.9476 170.083 73.3008C169.947 73.654 169.878 74.0413 169.878 74.4629C169.878 74.8844 169.975 75.2661 170.169 75.6079C170.363 75.9383 170.642 76.2004 171.006 76.394C171.371 76.5763 171.798 76.6675 172.288 76.6675C173.029 76.6675 173.672 76.5194 174.219 76.2231C174.766 75.9269 175.188 75.5623 175.484 75.1294C175.792 74.6965 175.951 74.2863 175.962 73.8989L177.261 75.9839C177.079 76.451 176.828 76.9352 176.509 77.4365C176.202 77.9378 175.809 78.4106 175.33 78.855C174.852 79.2879 174.276 79.6468 173.604 79.9316C172.932 80.2051 172.134 80.3418 171.211 80.3418C170.038 80.3418 168.973 80.1082 168.016 79.6411C167.07 79.1626 166.318 78.5075 165.76 77.6758C165.213 76.8327 164.939 75.8757 164.939 74.8047C164.939 73.8363 165.122 72.9761 165.486 72.2241C165.851 71.4722 166.386 70.8398 167.093 70.3271C167.811 69.8031 168.705 69.41 169.776 69.1479C170.847 68.8745 172.089 68.7378 173.501 68.7378H176.355ZM194.437 75.8301V67.5928C194.437 67.0003 194.34 66.4933 194.146 66.0718C193.952 65.6388 193.65 65.3027 193.24 65.0635C192.841 64.8242 192.323 64.7046 191.685 64.7046C191.138 64.7046 190.665 64.8014 190.267 64.9951C189.868 65.1774 189.56 65.4451 189.344 65.7983C189.127 66.1401 189.019 66.5446 189.019 67.0117H184.097C184.097 66.2256 184.279 65.4793 184.644 64.7729C185.009 64.0666 185.538 63.4456 186.233 62.9102C186.928 62.3633 187.754 61.936 188.711 61.6284C189.68 61.3208 190.762 61.167 191.958 61.167C193.394 61.167 194.67 61.4062 195.787 61.8848C196.903 62.3633 197.78 63.0811 198.418 64.0381C199.068 64.9951 199.393 66.1914 199.393 67.627V75.5396C199.393 76.5535 199.455 77.3853 199.581 78.0347C199.706 78.6727 199.888 79.231 200.127 79.7095V80H195.154C194.915 79.4987 194.733 78.8721 194.607 78.1201C194.493 77.3568 194.437 76.5934 194.437 75.8301ZM195.086 68.7378L195.12 71.5234H192.369C191.719 71.5234 191.155 71.5975 190.677 71.7456C190.198 71.8937 189.805 72.1045 189.498 72.3779C189.19 72.64 188.962 72.9476 188.814 73.3008C188.677 73.654 188.609 74.0413 188.609 74.4629C188.609 74.8844 188.706 75.2661 188.899 75.6079C189.093 75.9383 189.372 76.2004 189.737 76.394C190.101 76.5763 190.529 76.6675 191.019 76.6675C191.759 76.6675 192.403 76.5194 192.95 76.2231C193.497 75.9269 193.918 75.5623 194.214 75.1294C194.522 74.6965 194.681 74.2863 194.693 73.8989L195.992 75.9839C195.809 76.451 195.559 76.9352 195.24 77.4365C194.932 77.9378 194.539 78.4106 194.061 78.855C193.582 79.2879 193.007 79.6468 192.334 79.9316C191.662 80.2051 190.865 80.3418 189.942 80.3418C188.768 80.3418 187.703 80.1082 186.746 79.6411C185.8 79.1626 185.049 78.5075 184.49 77.6758C183.943 76.8327 183.67 75.8757 183.67 74.8047C183.67 73.8363 183.852 72.9761 184.217 72.2241C184.581 71.4722 185.117 70.8398 185.823 70.3271C186.541 69.8031 187.435 69.41 188.506 69.1479C189.577 68.8745 190.819 68.7378 192.232 68.7378H195.086ZM228.804 65.2515V69.2505H215.816V65.2515H228.804ZM217.337 55.1172V80H212.21V55.1172H217.337ZM232.461 55.1172V80H227.352V55.1172H232.461ZM246.595 75.8301V67.5928C246.595 67.0003 246.498 66.4933 246.304 66.0718C246.111 65.6388 245.809 65.3027 245.398 65.0635C245 64.8242 244.481 64.7046 243.843 64.7046C243.296 64.7046 242.824 64.8014 242.425 64.9951C242.026 65.1774 241.718 65.4451 241.502 65.7983C241.285 66.1401 241.177 66.5446 241.177 67.0117H236.255C236.255 66.2256 236.438 65.4793 236.802 64.7729C237.167 64.0666 237.697 63.4456 238.392 62.9102C239.087 62.3633 239.913 61.936 240.87 61.6284C241.838 61.3208 242.92 61.167 244.117 61.167C245.552 61.167 246.828 61.4062 247.945 61.8848C249.061 62.3633 249.939 63.0811 250.577 64.0381C251.226 64.9951 251.551 66.1914 251.551 67.627V75.5396C251.551 76.5535 251.613 77.3853 251.739 78.0347C251.864 78.6727 252.046 79.231 252.286 79.7095V80H247.312C247.073 79.4987 246.891 78.8721 246.766 78.1201C246.652 77.3568 246.595 76.5934 246.595 75.8301ZM247.244 68.7378L247.278 71.5234H244.527C243.877 71.5234 243.313 71.5975 242.835 71.7456C242.356 71.8937 241.963 72.1045 241.656 72.3779C241.348 72.64 241.12 72.9476 240.972 73.3008C240.835 73.654 240.767 74.0413 240.767 74.4629C240.767 74.8844 240.864 75.2661 241.058 75.6079C241.251 75.9383 241.53 76.2004 241.895 76.394C242.26 76.5763 242.687 76.6675 243.177 76.6675C243.917 76.6675 244.561 76.5194 245.108 76.2231C245.655 75.9269 246.076 75.5623 246.373 75.1294C246.68 74.6965 246.84 74.2863 246.851 73.8989L248.15 75.9839C247.968 76.451 247.717 76.9352 247.398 77.4365C247.09 77.9378 246.697 78.4106 246.219 78.855C245.74 79.2879 245.165 79.6468 244.493 79.9316C243.82 80.2051 243.023 80.3418 242.1 80.3418C240.927 80.3418 239.861 80.1082 238.904 79.6411C237.959 79.1626 237.207 78.5075 236.648 77.6758C236.102 76.8327 235.828 75.8757 235.828 74.8047C235.828 73.8363 236.01 72.9761 236.375 72.2241C236.74 71.4722 237.275 70.8398 237.981 70.3271C238.699 69.8031 239.594 69.41 240.665 69.1479C241.736 68.8745 242.977 68.7378 244.39 68.7378H247.244ZM260.267 65.3369V80H255.328V61.5088H259.959L260.267 65.3369ZM259.583 70.105H258.216C258.216 68.8175 258.37 67.6326 258.677 66.5503C258.996 65.4565 259.458 64.5109 260.062 63.7134C260.677 62.9045 261.434 62.2778 262.334 61.8335C263.235 61.3892 264.277 61.167 265.462 61.167C266.282 61.167 267.034 61.2923 267.718 61.543C268.401 61.7822 268.988 62.1639 269.478 62.688C269.979 63.2007 270.367 63.8729 270.64 64.7046C270.914 65.5249 271.05 66.5104 271.05 67.6611V80H266.128V68.208C266.128 67.3649 266.014 66.7155 265.787 66.2598C265.559 65.804 265.234 65.485 264.812 65.3027C264.402 65.1204 263.907 65.0293 263.326 65.0293C262.688 65.0293 262.129 65.1603 261.651 65.4224C261.184 65.6844 260.796 66.049 260.489 66.5161C260.181 66.9718 259.953 67.5073 259.805 68.1226C259.657 68.7378 259.583 69.3986 259.583 70.105ZM270.589 69.541L268.829 69.7632C268.829 68.5555 268.977 67.4333 269.273 66.3965C269.581 65.3597 270.031 64.4482 270.623 63.6621C271.227 62.876 271.973 62.2664 272.862 61.8335C273.75 61.3892 274.776 61.167 275.938 61.167C276.827 61.167 277.636 61.298 278.365 61.5601C279.094 61.8107 279.715 62.2152 280.228 62.7734C280.752 63.3203 281.15 64.0381 281.424 64.9268C281.709 65.8154 281.851 66.9035 281.851 68.1909V80H276.912V68.1909C276.912 67.3364 276.798 66.687 276.57 66.2427C276.354 65.7869 276.035 65.4736 275.613 65.3027C275.203 65.1204 274.713 65.0293 274.144 65.0293C273.551 65.0293 273.033 65.1489 272.588 65.3882C272.144 65.616 271.774 65.9351 271.478 66.3452C271.181 66.7554 270.959 67.2339 270.811 67.7808C270.663 68.3162 270.589 68.903 270.589 69.541ZM290.857 61.5088V80H285.918V61.5088H290.857ZM285.611 56.6895C285.611 55.9717 285.861 55.3792 286.363 54.9121C286.864 54.445 287.536 54.2114 288.379 54.2114C289.211 54.2114 289.878 54.445 290.379 54.9121C290.892 55.3792 291.148 55.9717 291.148 56.6895C291.148 57.4072 290.892 57.9997 290.379 58.4668C289.878 58.9339 289.211 59.1675 288.379 59.1675C287.536 59.1675 286.864 58.9339 286.363 58.4668C285.861 57.9997 285.611 57.4072 285.611 56.6895ZM305.845 75.9668V53.75H310.801V80H306.341L305.845 75.9668ZM294.156 70.9766V70.6177C294.156 69.2049 294.315 67.9232 294.634 66.7725C294.953 65.6104 295.42 64.6134 296.036 63.7817C296.651 62.95 297.409 62.3063 298.309 61.8506C299.209 61.3949 300.234 61.167 301.385 61.167C302.467 61.167 303.413 61.3949 304.222 61.8506C305.042 62.3063 305.737 62.9557 306.307 63.7988C306.888 64.6305 307.355 65.616 307.708 66.7554C308.061 67.8833 308.318 69.1195 308.477 70.4639V71.25C308.318 72.5374 308.061 73.7337 307.708 74.8389C307.355 75.944 306.888 76.9124 306.307 77.7441C305.737 78.5645 305.042 79.2025 304.222 79.6582C303.401 80.1139 302.444 80.3418 301.351 80.3418C300.2 80.3418 299.174 80.1082 298.274 79.6411C297.386 79.174 296.634 78.5189 296.019 77.6758C295.415 76.8327 294.953 75.8415 294.634 74.7021C294.315 73.5628 294.156 72.321 294.156 70.9766ZM299.078 70.6177V70.9766C299.078 71.7399 299.135 72.452 299.249 73.1128C299.374 73.7736 299.573 74.3604 299.847 74.873C300.132 75.3743 300.496 75.7674 300.94 76.0522C301.396 76.3257 301.949 76.4624 302.598 76.4624C303.441 76.4624 304.136 76.2744 304.683 75.8984C305.23 75.5111 305.646 74.9813 305.931 74.3091C306.227 73.6369 306.398 72.8621 306.443 71.9849V69.7461C306.409 69.0283 306.307 68.3846 306.136 67.8149C305.976 67.2339 305.737 66.7383 305.418 66.3281C305.11 65.918 304.723 65.599 304.256 65.3711C303.8 65.1432 303.259 65.0293 302.632 65.0293C301.994 65.0293 301.447 65.1774 300.992 65.4736C300.536 65.7585 300.166 66.1515 299.881 66.6528C299.607 67.1541 299.402 67.7466 299.266 68.4302C299.14 69.1024 299.078 69.8315 299.078 70.6177Z" fill="#888888"/>
<rect x="92" y="181" width="1179" height="80" rx="13.3333" fill="#CCCCCC"/>
<rect x="107" y="196.333" width="208" height="49.3333" rx="4.66667" fill="#888888" stroke="#888888" stroke-width="4"/>
<path d="M183.833 213.167V228.333H180.177V213.167H183.833ZM189.729 219.479V222.292H182.792V219.479H189.729ZM190.323 213.167V215.99H182.792V213.167H190.323ZM195.385 212.333V228.333H191.865V212.333H195.385ZM204.135 225.594V217.062H207.656V228.333H204.365L204.135 225.594ZM204.469 223.302L205.385 223.281C205.385 224.038 205.295 224.74 205.115 225.385C204.934 226.024 204.667 226.58 204.313 227.052C203.965 227.524 203.535 227.892 203.021 228.156C202.514 228.413 201.927 228.542 201.26 228.542C200.705 228.542 200.194 228.465 199.729 228.312C199.271 228.153 198.875 227.906 198.542 227.573C198.208 227.233 197.948 226.799 197.76 226.271C197.58 225.736 197.49 225.097 197.49 224.354V217.062H201V224.375C201 224.625 201.031 224.84 201.094 225.021C201.156 225.201 201.247 225.354 201.365 225.479C201.483 225.597 201.628 225.687 201.802 225.75C201.983 225.806 202.188 225.833 202.417 225.833C202.944 225.833 203.358 225.722 203.656 225.5C203.955 225.278 204.163 224.976 204.281 224.594C204.406 224.212 204.469 223.781 204.469 223.302ZM215.531 217.062V219.5H208.74V217.062H215.531ZM210.167 214.26H213.677V224.656C213.677 224.955 213.712 225.187 213.781 225.354C213.851 225.514 213.969 225.628 214.135 225.698C214.309 225.76 214.538 225.792 214.823 225.792C215.024 225.792 215.191 225.788 215.323 225.781C215.455 225.767 215.58 225.75 215.698 225.729V228.24C215.399 228.337 215.087 228.41 214.76 228.458C214.434 228.514 214.087 228.542 213.719 228.542C212.969 228.542 212.326 228.424 211.792 228.187C211.264 227.951 210.861 227.58 210.583 227.073C210.306 226.566 210.167 225.906 210.167 225.094V214.26ZM222.865 217.062V219.5H216.073V217.062H222.865ZM217.5 214.26H221.01V224.656C221.01 224.955 221.045 225.187 221.115 225.354C221.184 225.514 221.302 225.628 221.469 225.698C221.642 225.76 221.872 225.792 222.156 225.792C222.358 225.792 222.524 225.788 222.656 225.781C222.788 225.767 222.913 225.75 223.031 225.729V228.24C222.733 228.337 222.42 228.41 222.094 228.458C221.767 228.514 221.42 228.542 221.052 228.542C220.302 228.542 219.66 228.424 219.125 228.187C218.597 227.951 218.194 227.58 217.917 227.073C217.639 226.566 217.5 225.906 217.5 225.094V214.26ZM229.719 228.542C228.802 228.542 227.983 228.399 227.26 228.115C226.538 227.823 225.927 227.424 225.427 226.917C224.934 226.41 224.556 225.826 224.292 225.167C224.035 224.507 223.906 223.809 223.906 223.073V222.677C223.906 221.851 224.021 221.087 224.25 220.385C224.479 219.677 224.819 219.059 225.271 218.531C225.722 218.003 226.288 217.594 226.969 217.302C227.649 217.003 228.441 216.854 229.344 216.854C230.142 216.854 230.858 216.983 231.49 217.24C232.122 217.497 232.656 217.865 233.094 218.344C233.538 218.823 233.875 219.403 234.104 220.083C234.34 220.764 234.458 221.528 234.458 222.375V223.802H225.25V221.604H231.031V221.333C231.038 220.958 230.972 220.639 230.833 220.375C230.701 220.111 230.507 219.91 230.25 219.771C229.993 219.632 229.681 219.562 229.312 219.562C228.931 219.562 228.615 219.646 228.365 219.812C228.122 219.979 227.931 220.208 227.792 220.5C227.66 220.785 227.566 221.115 227.51 221.49C227.455 221.865 227.427 222.26 227.427 222.677V223.073C227.427 223.49 227.483 223.868 227.594 224.208C227.712 224.549 227.878 224.84 228.094 225.083C228.316 225.319 228.58 225.503 228.885 225.635C229.198 225.767 229.552 225.833 229.948 225.833C230.427 225.833 230.899 225.743 231.365 225.562C231.83 225.382 232.229 225.083 232.562 224.667L234.156 226.562C233.927 226.889 233.601 227.205 233.177 227.51C232.76 227.816 232.26 228.066 231.677 228.26C231.094 228.448 230.441 228.542 229.719 228.542ZM239.427 219.854V228.333H235.917V217.062H239.198L239.427 219.854ZM242.76 216.979L242.698 220.24C242.559 220.226 242.372 220.208 242.135 220.187C241.899 220.167 241.701 220.156 241.542 220.156C241.132 220.156 240.778 220.205 240.479 220.302C240.187 220.392 239.944 220.531 239.75 220.719C239.562 220.899 239.424 221.128 239.333 221.406C239.25 221.684 239.212 222.007 239.219 222.375L238.583 221.958C238.583 221.201 238.656 220.514 238.802 219.896C238.955 219.271 239.17 218.733 239.448 218.281C239.726 217.823 240.062 217.472 240.458 217.229C240.854 216.979 241.299 216.854 241.792 216.854C241.965 216.854 242.135 216.865 242.302 216.885C242.476 216.906 242.628 216.937 242.76 216.979Z" fill="white"/>
<rect x="339" y="196.333" width="208" height="49.3333" rx="4.66667" fill="#888888" stroke="#888888" stroke-width="4"/>
<path d="M419.073 225.521V228.333H411.406V225.521H419.073ZM412.708 213.167V228.333H409.052V213.167H412.708ZM426.302 225.5V220.854C426.302 220.535 426.257 220.26 426.167 220.031C426.076 219.802 425.934 219.625 425.74 219.5C425.545 219.368 425.285 219.302 424.958 219.302C424.694 219.302 424.469 219.347 424.281 219.437C424.094 219.528 423.951 219.663 423.854 219.844C423.757 220.024 423.708 220.253 423.708 220.531H420.198C420.198 220.01 420.312 219.528 420.542 219.083C420.778 218.632 421.111 218.24 421.542 217.906C421.979 217.573 422.5 217.316 423.104 217.135C423.715 216.948 424.396 216.854 425.146 216.854C426.042 216.854 426.84 217.003 427.542 217.302C428.25 217.601 428.809 218.049 429.219 218.646C429.628 219.236 429.833 219.979 429.833 220.875V225.49C429.833 226.226 429.875 226.785 429.958 227.167C430.042 227.542 430.16 227.872 430.312 228.156V228.333H426.792C426.625 227.986 426.5 227.562 426.417 227.062C426.34 226.556 426.302 226.035 426.302 225.5ZM426.729 221.448L426.75 223.323H425.198C424.872 223.323 424.594 223.368 424.365 223.458C424.142 223.549 423.962 223.674 423.823 223.833C423.691 223.986 423.594 224.16 423.531 224.354C423.476 224.549 423.448 224.753 423.448 224.969C423.448 225.177 423.497 225.365 423.594 225.531C423.698 225.691 423.837 225.816 424.01 225.906C424.184 225.997 424.378 226.042 424.594 226.042C424.983 226.042 425.312 225.969 425.583 225.823C425.861 225.67 426.073 225.486 426.219 225.271C426.365 225.056 426.437 224.854 426.437 224.667L427.208 226.104C427.069 226.382 426.91 226.663 426.729 226.948C426.556 227.233 426.337 227.497 426.073 227.74C425.816 227.976 425.5 228.17 425.125 228.323C424.75 228.469 424.295 228.542 423.76 228.542C423.066 228.542 422.427 228.399 421.844 228.115C421.267 227.83 420.806 227.434 420.458 226.927C420.111 226.413 419.937 225.823 419.937 225.156C419.937 224.573 420.042 224.052 420.25 223.594C420.465 223.135 420.788 222.747 421.219 222.427C421.649 222.108 422.198 221.865 422.865 221.698C423.531 221.531 424.316 221.448 425.219 221.448H426.729ZM435.323 219.854V228.333H431.812V217.062H435.094L435.323 219.854ZM438.656 216.979L438.594 220.24C438.455 220.226 438.267 220.208 438.031 220.187C437.795 220.167 437.597 220.156 437.437 220.156C437.028 220.156 436.674 220.205 436.375 220.302C436.083 220.392 435.84 220.531 435.646 220.719C435.458 220.899 435.319 221.128 435.229 221.406C435.146 221.684 435.108 222.007 435.115 222.375L434.479 221.958C434.479 221.201 434.552 220.514 434.698 219.896C434.851 219.271 435.066 218.733 435.344 218.281C435.622 217.823 435.958 217.472 436.354 217.229C436.75 216.979 437.194 216.854 437.687 216.854C437.861 216.854 438.031 216.865 438.198 216.885C438.372 216.906 438.524 216.937 438.656 216.979ZM445.406 225.5V220.854C445.406 220.535 445.361 220.26 445.271 220.031C445.181 219.802 445.038 219.625 444.844 219.5C444.649 219.368 444.389 219.302 444.063 219.302C443.799 219.302 443.573 219.347 443.385 219.437C443.198 219.528 443.056 219.663 442.958 219.844C442.861 220.024 442.813 220.253 442.813 220.531H439.302C439.302 220.01 439.417 219.528 439.646 219.083C439.882 218.632 440.215 218.24 440.646 217.906C441.083 217.573 441.604 217.316 442.208 217.135C442.819 216.948 443.5 216.854 444.25 216.854C445.146 216.854 445.944 217.003 446.646 217.302C447.354 217.601 447.913 218.049 448.323 218.646C448.733 219.236 448.938 219.979 448.938 220.875V225.49C448.938 226.226 448.979 226.785 449.063 227.167C449.146 227.542 449.264 227.872 449.417 228.156V228.333H445.896C445.729 227.986 445.604 227.562 445.521 227.062C445.444 226.556 445.406 226.035 445.406 225.5ZM445.833 221.448L445.854 223.323H444.302C443.976 223.323 443.698 223.368 443.469 223.458C443.247 223.549 443.066 223.674 442.927 223.833C442.795 223.986 442.698 224.16 442.635 224.354C442.58 224.549 442.552 224.753 442.552 224.969C442.552 225.177 442.601 225.365 442.698 225.531C442.802 225.691 442.941 225.816 443.115 225.906C443.288 225.997 443.483 226.042 443.698 226.042C444.087 226.042 444.417 225.969 444.688 225.823C444.965 225.67 445.177 225.486 445.323 225.271C445.469 225.056 445.542 224.854 445.542 224.667L446.313 226.104C446.174 226.382 446.014 226.663 445.833 226.948C445.66 227.233 445.441 227.497 445.177 227.74C444.92 227.976 444.604 228.17 444.229 228.323C443.854 228.469 443.399 228.542 442.865 228.542C442.17 228.542 441.531 228.399 440.948 228.115C440.372 227.83 439.91 227.434 439.563 226.927C439.215 226.413 439.042 225.823 439.042 225.156C439.042 224.573 439.146 224.052 439.354 223.594C439.569 223.135 439.892 222.747 440.323 222.427C440.753 222.108 441.302 221.865 441.969 221.698C442.635 221.531 443.42 221.448 444.323 221.448H445.833ZM454.781 225.927L457 217.062H460.698L457.01 228.333H454.823L454.781 225.927ZM453.469 217.062L455.656 225.927L455.635 228.333H453.437L449.76 217.062H453.469ZM467.052 228.542C466.135 228.542 465.316 228.399 464.594 228.115C463.872 227.823 463.26 227.424 462.76 226.917C462.267 226.41 461.889 225.826 461.625 225.167C461.368 224.507 461.24 223.809 461.24 223.073V222.677C461.24 221.851 461.354 221.087 461.583 220.385C461.812 219.677 462.153 219.059 462.604 218.531C463.056 218.003 463.622 217.594 464.302 217.302C464.983 217.003 465.774 216.854 466.677 216.854C467.476 216.854 468.191 216.983 468.823 217.24C469.455 217.497 469.99 217.865 470.427 218.344C470.872 218.823 471.208 219.403 471.437 220.083C471.674 220.764 471.792 221.528 471.792 222.375V223.802H462.583V221.604H468.365V221.333C468.372 220.958 468.306 220.639 468.167 220.375C468.035 220.111 467.84 219.91 467.583 219.771C467.326 219.632 467.014 219.562 466.646 219.562C466.264 219.562 465.948 219.646 465.698 219.812C465.455 219.979 465.264 220.208 465.125 220.5C464.993 220.785 464.899 221.115 464.844 221.49C464.788 221.865 464.76 222.26 464.76 222.677V223.073C464.76 223.49 464.816 223.868 464.927 224.208C465.045 224.549 465.212 224.84 465.427 225.083C465.649 225.319 465.913 225.503 466.219 225.635C466.531 225.767 466.885 225.833 467.281 225.833C467.76 225.833 468.233 225.743 468.698 225.562C469.163 225.382 469.562 225.083 469.896 224.667L471.49 226.562C471.26 226.889 470.934 227.205 470.51 227.51C470.094 227.816 469.594 228.066 469.01 228.26C468.427 228.448 467.774 228.542 467.052 228.542ZM476.927 212.333V228.333H473.406V212.333H476.927Z" fill="white"/>
<rect x="571" y="196.333" width="208" height="49.3333" rx="4.66667" fill="#888888" stroke="#888888" stroke-width="4"/>
<path d="M634.375 213.167H640.344C641.51 213.167 642.524 213.34 643.385 213.687C644.247 214.035 644.91 214.549 645.375 215.229C645.847 215.91 646.083 216.75 646.083 217.75C646.083 218.618 645.948 219.344 645.677 219.927C645.406 220.51 645.028 220.993 644.542 221.375C644.063 221.75 643.503 222.059 642.865 222.302L641.667 222.979H636.656L636.635 220.156H640.344C640.809 220.156 641.194 220.073 641.5 219.906C641.806 219.74 642.035 219.503 642.188 219.198C642.347 218.885 642.427 218.514 642.427 218.083C642.427 217.646 642.347 217.271 642.188 216.958C642.028 216.646 641.792 216.406 641.479 216.24C641.174 216.073 640.795 215.99 640.344 215.99H638.031V228.333H634.375V213.167ZM642.677 228.333L639.323 221.625L643.198 221.604L646.594 228.177V228.333H642.677ZM653.583 228.542C652.667 228.542 651.847 228.399 651.125 228.115C650.403 227.823 649.792 227.424 649.292 226.917C648.799 226.41 648.42 225.826 648.156 225.167C647.899 224.507 647.771 223.809 647.771 223.073V222.677C647.771 221.851 647.885 221.087 648.115 220.385C648.344 219.677 648.684 219.059 649.135 218.531C649.587 218.003 650.153 217.594 650.833 217.302C651.514 217.003 652.306 216.854 653.208 216.854C654.007 216.854 654.722 216.983 655.354 217.24C655.986 217.497 656.521 217.865 656.958 218.344C657.403 218.823 657.74 219.403 657.969 220.083C658.205 220.764 658.323 221.528 658.323 222.375V223.802H649.115V221.604H654.896V221.333C654.903 220.958 654.837 220.639 654.698 220.375C654.566 220.111 654.372 219.91 654.115 219.771C653.858 219.632 653.545 219.562 653.177 219.562C652.795 219.562 652.479 219.646 652.229 219.812C651.986 219.979 651.795 220.208 651.656 220.5C651.524 220.785 651.431 221.115 651.375 221.49C651.319 221.865 651.292 222.26 651.292 222.677V223.073C651.292 223.49 651.347 223.868 651.458 224.208C651.576 224.549 651.743 224.84 651.958 225.083C652.181 225.319 652.444 225.503 652.75 225.635C653.062 225.767 653.417 225.833 653.812 225.833C654.292 225.833 654.764 225.743 655.229 225.562C655.694 225.382 656.094 225.083 656.427 224.667L658.021 226.562C657.792 226.889 657.465 227.205 657.042 227.51C656.625 227.816 656.125 228.066 655.542 228.26C654.958 228.448 654.306 228.542 653.583 228.542ZM665.604 225.5V220.854C665.604 220.535 665.559 220.26 665.469 220.031C665.378 219.802 665.236 219.625 665.042 219.5C664.847 219.368 664.587 219.302 664.26 219.302C663.997 219.302 663.771 219.347 663.583 219.437C663.396 219.528 663.253 219.663 663.156 219.844C663.059 220.024 663.01 220.253 663.01 220.531H659.5C659.5 220.01 659.615 219.528 659.844 219.083C660.08 218.632 660.413 218.24 660.844 217.906C661.281 217.573 661.802 217.316 662.406 217.135C663.017 216.948 663.698 216.854 664.448 216.854C665.344 216.854 666.142 217.003 666.844 217.302C667.552 217.601 668.111 218.049 668.521 218.646C668.931 219.236 669.135 219.979 669.135 220.875V225.49C669.135 226.226 669.177 226.785 669.26 227.167C669.344 227.542 669.462 227.872 669.615 228.156V228.333H666.094C665.927 227.986 665.802 227.562 665.719 227.062C665.642 226.556 665.604 226.035 665.604 225.5ZM666.031 221.448L666.052 223.323H664.5C664.174 223.323 663.896 223.368 663.667 223.458C663.444 223.549 663.264 223.674 663.125 223.833C662.993 223.986 662.896 224.16 662.833 224.354C662.778 224.549 662.75 224.753 662.75 224.969C662.75 225.177 662.799 225.365 662.896 225.531C663 225.691 663.139 225.816 663.313 225.906C663.486 225.997 663.681 226.042 663.896 226.042C664.285 226.042 664.615 225.969 664.885 225.823C665.163 225.67 665.375 225.486 665.521 225.271C665.667 225.056 665.74 224.854 665.74 224.667L666.51 226.104C666.372 226.382 666.212 226.663 666.031 226.948C665.858 227.233 665.639 227.497 665.375 227.74C665.118 227.976 664.802 228.17 664.427 228.323C664.052 228.469 663.597 228.542 663.063 228.542C662.368 228.542 661.729 228.399 661.146 228.115C660.569 227.83 660.108 227.434 659.76 226.927C659.413 226.413 659.24 225.823 659.24 225.156C659.24 224.573 659.344 224.052 659.552 223.594C659.767 223.135 660.09 222.747 660.521 222.427C660.951 222.108 661.5 221.865 662.167 221.698C662.833 221.531 663.618 221.448 664.521 221.448H666.031ZM675.844 225.833C676.17 225.833 676.448 225.774 676.677 225.656C676.913 225.531 677.09 225.358 677.208 225.135C677.333 224.906 677.392 224.632 677.385 224.312H680.688C680.694 225.16 680.486 225.903 680.063 226.542C679.646 227.174 679.076 227.667 678.354 228.021C677.639 228.368 676.83 228.542 675.927 228.542C675.045 228.542 674.274 228.399 673.615 228.115C672.955 227.823 672.403 227.42 671.958 226.906C671.521 226.385 671.191 225.778 670.969 225.083C670.753 224.389 670.646 223.635 670.646 222.823V222.583C670.646 221.771 670.753 221.017 670.969 220.323C671.191 219.622 671.521 219.014 671.958 218.5C672.403 217.979 672.951 217.576 673.604 217.292C674.264 217 675.031 216.854 675.906 216.854C676.844 216.854 677.67 217.031 678.385 217.385C679.108 217.74 679.674 218.253 680.083 218.927C680.493 219.601 680.694 220.417 680.688 221.375H677.385C677.392 221.035 677.34 220.729 677.229 220.458C677.118 220.187 676.944 219.972 676.708 219.812C676.479 219.646 676.184 219.562 675.823 219.562C675.462 219.562 675.17 219.642 674.948 219.802C674.726 219.962 674.556 220.184 674.438 220.469C674.326 220.747 674.25 221.066 674.208 221.427C674.174 221.788 674.156 222.174 674.156 222.583V222.823C674.156 223.24 674.174 223.632 674.208 224C674.25 224.361 674.33 224.681 674.448 224.958C674.566 225.229 674.736 225.444 674.958 225.604C675.181 225.757 675.476 225.833 675.844 225.833ZM688.125 217.062V219.5H681.333V217.062H688.125ZM682.76 214.26H686.271V224.656C686.271 224.955 686.306 225.187 686.375 225.354C686.444 225.514 686.563 225.628 686.729 225.698C686.903 225.76 687.132 225.792 687.417 225.792C687.618 225.792 687.785 225.788 687.917 225.781C688.049 225.767 688.174 225.75 688.292 225.729V228.24C687.993 228.337 687.681 228.41 687.354 228.458C687.028 228.514 686.681 228.542 686.313 228.542C685.563 228.542 684.92 228.424 684.385 228.187C683.858 227.951 683.455 227.58 683.177 227.073C682.899 226.566 682.76 225.906 682.76 225.094V214.26ZM701.031 223.573V213.167H704.677V223.573C704.677 224.587 704.444 225.465 703.979 226.208C703.521 226.951 702.896 227.528 702.104 227.937C701.319 228.34 700.438 228.542 699.458 228.542C698.444 228.542 697.542 228.372 696.75 228.031C695.965 227.691 695.347 227.167 694.896 226.458C694.451 225.75 694.229 224.847 694.229 223.75H697.896C697.896 224.264 697.955 224.667 698.073 224.958C698.191 225.243 698.365 225.444 698.594 225.562C698.83 225.674 699.118 225.729 699.458 225.729C699.792 225.729 700.073 225.646 700.302 225.479C700.538 225.306 700.719 225.059 700.844 224.74C700.969 224.413 701.031 224.024 701.031 223.573ZM712.74 225.167C712.74 224.972 712.674 224.806 712.542 224.667C712.417 224.521 712.194 224.389 711.875 224.271C711.556 224.146 711.108 224.021 710.531 223.896C709.983 223.778 709.465 223.622 708.979 223.427C708.5 223.233 708.08 222.997 707.719 222.719C707.358 222.441 707.073 222.111 706.865 221.729C706.663 221.347 706.563 220.91 706.563 220.417C706.563 219.937 706.663 219.486 706.865 219.062C707.073 218.632 707.375 218.253 707.771 217.927C708.174 217.594 708.663 217.333 709.24 217.146C709.816 216.951 710.472 216.854 711.208 216.854C712.222 216.854 713.097 217.01 713.833 217.323C714.569 217.628 715.135 218.059 715.531 218.615C715.934 219.163 716.135 219.799 716.135 220.521H712.625C712.625 220.236 712.576 219.993 712.479 219.792C712.389 219.59 712.24 219.437 712.031 219.333C711.823 219.222 711.545 219.167 711.198 219.167C710.955 219.167 710.733 219.212 710.531 219.302C710.337 219.392 710.181 219.517 710.063 219.677C709.944 219.837 709.885 220.024 709.885 220.24C709.885 220.392 709.92 220.531 709.99 220.656C710.066 220.774 710.181 220.885 710.333 220.99C710.486 221.087 710.681 221.177 710.917 221.26C711.153 221.337 711.438 221.406 711.771 221.469C712.528 221.608 713.236 221.806 713.896 222.062C714.556 222.319 715.09 222.684 715.5 223.156C715.917 223.628 716.125 224.264 716.125 225.062C716.125 225.562 716.01 226.024 715.781 226.448C715.552 226.865 715.222 227.233 714.792 227.552C714.361 227.865 713.844 228.108 713.24 228.281C712.635 228.455 711.955 228.542 711.198 228.542C710.122 228.542 709.212 228.351 708.469 227.969C707.726 227.58 707.163 227.094 706.781 226.51C706.406 225.92 706.219 225.323 706.219 224.719H709.49C709.503 225.066 709.587 225.351 709.74 225.573C709.899 225.795 710.111 225.958 710.375 226.062C710.639 226.167 710.944 226.219 711.292 226.219C711.611 226.219 711.875 226.174 712.083 226.083C712.299 225.993 712.462 225.872 712.573 225.719C712.684 225.559 712.74 225.375 712.74 225.167Z" fill="white"/>
<rect x="803" y="196.333" width="208" height="49.3333" rx="4.66667" fill="#888888" stroke="#888888" stroke-width="4"/>
<path d="M875.26 213.167H878.24L881.625 223.719L885.01 213.167H887.99L882.833 228.333H880.417L875.26 213.167ZM873.448 213.167H876.531L877.104 224.792V228.333H873.448V213.167ZM886.719 213.167H889.812V228.333H886.146V224.792L886.719 213.167ZM895.448 227.01L898.365 217.062H902.135L897.604 230.01C897.507 230.295 897.378 230.601 897.219 230.927C897.059 231.26 896.84 231.576 896.563 231.875C896.285 232.174 895.927 232.417 895.49 232.604C895.059 232.792 894.524 232.885 893.885 232.885C893.545 232.885 893.295 232.868 893.135 232.833C892.983 232.806 892.747 232.753 892.427 232.677V230.167C892.517 230.167 892.594 230.167 892.656 230.167C892.726 230.167 892.802 230.167 892.885 230.167C893.26 230.167 893.559 230.128 893.781 230.052C894.01 229.976 894.184 229.865 894.302 229.719C894.427 229.573 894.524 229.396 894.594 229.187L895.448 227.01ZM894.708 217.062L896.927 224.948L897.313 228.667H894.958L890.948 217.062H894.708ZM911.031 224.302C911.031 224.066 910.997 223.854 910.927 223.667C910.858 223.472 910.729 223.292 910.542 223.125C910.354 222.958 910.083 222.792 909.729 222.625C909.382 222.451 908.924 222.271 908.354 222.083C907.688 221.861 907.045 221.611 906.427 221.333C905.809 221.049 905.257 220.719 904.771 220.344C904.285 219.962 903.899 219.517 903.615 219.01C903.33 218.497 903.188 217.899 903.188 217.219C903.188 216.566 903.333 215.979 903.625 215.458C903.917 214.931 904.323 214.483 904.844 214.115C905.372 213.74 905.99 213.455 906.698 213.26C907.406 213.059 908.181 212.958 909.021 212.958C910.132 212.958 911.111 213.153 911.958 213.542C912.813 213.924 913.479 214.469 913.958 215.177C914.444 215.878 914.688 216.708 914.688 217.667H911.052C911.052 217.285 910.972 216.948 910.813 216.656C910.66 216.365 910.427 216.135 910.115 215.969C909.802 215.802 909.41 215.719 908.938 215.719C908.479 215.719 908.094 215.788 907.781 215.927C907.469 216.066 907.233 216.253 907.073 216.49C906.913 216.719 906.833 216.972 906.833 217.25C906.833 217.479 906.896 217.687 907.021 217.875C907.153 218.056 907.337 218.226 907.573 218.385C907.816 218.545 908.108 218.698 908.448 218.844C908.795 218.99 909.184 219.132 909.615 219.271C910.42 219.528 911.135 219.816 911.76 220.135C912.392 220.448 912.924 220.806 913.354 221.208C913.792 221.604 914.122 222.056 914.344 222.562C914.573 223.069 914.688 223.642 914.688 224.281C914.688 224.962 914.556 225.566 914.292 226.094C914.028 226.622 913.649 227.069 913.156 227.437C912.663 227.799 912.073 228.073 911.385 228.26C910.698 228.448 909.931 228.542 909.083 228.542C908.306 228.542 907.538 228.444 906.781 228.25C906.031 228.049 905.351 227.743 904.74 227.333C904.128 226.917 903.639 226.385 903.271 225.74C902.91 225.087 902.729 224.312 902.729 223.417H906.396C906.396 223.861 906.455 224.236 906.573 224.542C906.691 224.847 906.865 225.094 907.094 225.281C907.323 225.462 907.604 225.594 907.938 225.677C908.271 225.753 908.653 225.792 909.083 225.792C909.549 225.792 909.924 225.726 910.208 225.594C910.493 225.455 910.701 225.274 910.833 225.052C910.965 224.823 911.031 224.573 911.031 224.302ZM925.031 225.833L929.26 229.187L926.99 231.104L922.833 227.75L925.031 225.833ZM929.437 220.448V221.062C929.437 222.222 929.274 223.264 928.948 224.187C928.628 225.104 928.17 225.889 927.573 226.542C926.983 227.187 926.285 227.684 925.479 228.031C924.674 228.372 923.785 228.542 922.812 228.542C921.833 228.542 920.937 228.372 920.125 228.031C919.319 227.684 918.618 227.187 918.021 226.542C917.431 225.889 916.972 225.104 916.646 224.187C916.326 223.264 916.167 222.222 916.167 221.062V220.448C916.167 219.288 916.326 218.247 916.646 217.323C916.972 216.399 917.427 215.615 918.01 214.969C918.601 214.316 919.299 213.819 920.104 213.479C920.917 213.132 921.812 212.958 922.792 212.958C923.764 212.958 924.653 213.132 925.458 213.479C926.271 213.819 926.972 214.316 927.562 214.969C928.16 215.615 928.622 216.399 928.948 217.323C929.274 218.247 929.437 219.288 929.437 220.448ZM925.719 221.062V220.427C925.719 219.677 925.653 219.017 925.521 218.448C925.396 217.872 925.208 217.389 924.958 217C924.708 216.611 924.399 216.319 924.031 216.125C923.67 215.924 923.257 215.823 922.792 215.823C922.306 215.823 921.882 215.924 921.521 216.125C921.16 216.319 920.858 216.611 920.615 217C920.372 217.389 920.187 217.872 920.062 218.448C919.944 219.017 919.885 219.677 919.885 220.427V221.062C919.885 221.806 919.944 222.465 920.062 223.042C920.187 223.611 920.372 224.094 920.615 224.49C920.865 224.885 921.17 225.184 921.531 225.385C921.899 225.587 922.326 225.687 922.812 225.687C923.278 225.687 923.691 225.587 924.052 225.385C924.413 225.184 924.715 224.885 924.958 224.49C925.208 224.094 925.396 223.611 925.521 223.042C925.653 222.465 925.719 221.806 925.719 221.062ZM941.323 225.521V228.333H933.656V225.521H941.323ZM934.958 213.167V228.333H931.302V213.167H934.958Z" fill="white"/>
</svg>
