<svg width="1363" height="167" viewBox="0 0 1363 167" fill="none" xmlns="http://www.w3.org/2000/svg">
<g style="mix-blend-mode:exclusion">
<rect width="1363" height="167" rx="15" fill="white" fill-opacity="0.05"/>
</g>
<g style="mix-blend-mode:exclusion">
<path d="M0 15C0 6.71573 6.71573 0 15 0H37V167H15C6.71573 167 0 160.284 0 152V15Z" fill="white" fill-opacity="0.25"/>
</g>
<g style="mix-blend-mode:exclusion">
<path d="M100.906 54.9219L93.3945 52.2383V49.0859L103.602 53.375V55.6367L100.906 54.9219ZM93.3945 57.1719L100.918 54.4297L103.602 53.7852V56.0352L93.3945 60.3242V57.1719ZM118.895 44.9375V62H115.391V44.9375H118.895ZM124.145 44.9375V47.6914H110.223V44.9375H124.145ZM123.359 55.7891V55.543C123.359 54.6133 123.492 53.7578 123.758 52.9766C124.023 52.1875 124.41 51.5039 124.918 50.9258C125.426 50.3477 126.051 49.8984 126.793 49.5781C127.535 49.25 128.387 49.0859 129.348 49.0859C130.309 49.0859 131.164 49.25 131.914 49.5781C132.664 49.8984 133.293 50.3477 133.801 50.9258C134.316 51.5039 134.707 52.1875 134.973 52.9766C135.238 53.7578 135.371 54.6133 135.371 55.543V55.7891C135.371 56.7109 135.238 57.5664 134.973 58.3555C134.707 59.1367 134.316 59.8203 133.801 60.4062C133.293 60.9844 132.668 61.4336 131.926 61.7539C131.184 62.0742 130.332 62.2344 129.371 62.2344C128.41 62.2344 127.555 62.0742 126.805 61.7539C126.062 61.4336 125.434 60.9844 124.918 60.4062C124.41 59.8203 124.023 59.1367 123.758 58.3555C123.492 57.5664 123.359 56.7109 123.359 55.7891ZM126.734 55.543V55.7891C126.734 56.3203 126.781 56.8164 126.875 57.2773C126.969 57.7383 127.117 58.1445 127.32 58.4961C127.531 58.8398 127.805 59.1094 128.141 59.3047C128.477 59.5 128.887 59.5977 129.371 59.5977C129.84 59.5977 130.242 59.5 130.578 59.3047C130.914 59.1094 131.184 58.8398 131.387 58.4961C131.59 58.1445 131.738 57.7383 131.832 57.2773C131.934 56.8164 131.984 56.3203 131.984 55.7891V55.543C131.984 55.0273 131.934 54.543 131.832 54.0898C131.738 53.6289 131.586 53.2227 131.375 52.8711C131.172 52.5117 130.902 52.2305 130.566 52.0273C130.23 51.8242 129.824 51.7227 129.348 51.7227C128.871 51.7227 128.465 51.8242 128.129 52.0273C127.801 52.2305 127.531 52.5117 127.32 52.8711C127.117 53.2227 126.969 53.6289 126.875 54.0898C126.781 54.543 126.734 55.0273 126.734 55.543ZM144.945 58.9648V49.3203H148.32V62H145.145L144.945 58.9648ZM145.32 56.3633L146.316 56.3398C146.316 57.1836 146.219 57.9688 146.023 58.6953C145.828 59.4141 145.535 60.0391 145.145 60.5703C144.754 61.0938 144.262 61.5039 143.668 61.8008C143.074 62.0898 142.375 62.2344 141.57 62.2344C140.953 62.2344 140.383 62.1484 139.859 61.9766C139.344 61.7969 138.898 61.5195 138.523 61.1445C138.156 60.7617 137.867 60.2734 137.656 59.6797C137.453 59.0781 137.352 58.3555 137.352 57.5117V49.3203H140.727V57.5352C140.727 57.9102 140.77 58.2266 140.855 58.4844C140.949 58.7422 141.078 58.9531 141.242 59.1172C141.406 59.2812 141.598 59.3984 141.816 59.4688C142.043 59.5391 142.293 59.5742 142.566 59.5742C143.262 59.5742 143.809 59.4336 144.207 59.1523C144.613 58.8711 144.898 58.4883 145.062 58.0039C145.234 57.5117 145.32 56.9648 145.32 56.3633ZM154.273 52.0859V62H150.898V49.3203H154.074L154.273 52.0859ZM158.094 49.2383L158.035 52.3672C157.871 52.3438 157.672 52.3242 157.438 52.3086C157.211 52.2852 157.004 52.2734 156.816 52.2734C156.34 52.2734 155.926 52.3359 155.574 52.4609C155.23 52.5781 154.941 52.7539 154.707 52.9883C154.48 53.2227 154.309 53.5078 154.191 53.8438C154.082 54.1797 154.02 54.5625 154.004 54.9922L153.324 54.7812C153.324 53.9609 153.406 53.207 153.57 52.5195C153.734 51.8242 153.973 51.2188 154.285 50.7031C154.605 50.1875 154.996 49.7891 155.457 49.5078C155.918 49.2266 156.445 49.0859 157.039 49.0859C157.227 49.0859 157.418 49.1016 157.613 49.1328C157.809 49.1562 157.969 49.1914 158.094 49.2383ZM163.25 49.3203V62H159.863V49.3203H163.25ZM159.652 46.0156C159.652 45.5234 159.824 45.1172 160.168 44.7969C160.512 44.4766 160.973 44.3164 161.551 44.3164C162.121 44.3164 162.578 44.4766 162.922 44.7969C163.273 45.1172 163.449 45.5234 163.449 46.0156C163.449 46.5078 163.273 46.9141 162.922 47.2344C162.578 47.5547 162.121 47.7148 161.551 47.7148C160.973 47.7148 160.512 47.5547 160.168 47.2344C159.824 46.9141 159.652 46.5078 159.652 46.0156ZM172.895 58.4961C172.895 58.2539 172.824 58.0352 172.684 57.8398C172.543 57.6445 172.281 57.4648 171.898 57.3008C171.523 57.1289 170.98 56.9727 170.27 56.832C169.629 56.6914 169.031 56.5156 168.477 56.3047C167.93 56.0859 167.453 55.8242 167.047 55.5195C166.648 55.2148 166.336 54.8555 166.109 54.4414C165.883 54.0195 165.77 53.5391 165.77 53C165.77 52.4688 165.883 51.9688 166.109 51.5C166.344 51.0312 166.676 50.6172 167.105 50.2578C167.543 49.8906 168.074 49.6055 168.699 49.4023C169.332 49.1914 170.043 49.0859 170.832 49.0859C171.934 49.0859 172.879 49.2617 173.668 49.6133C174.465 49.9648 175.074 50.4492 175.496 51.0664C175.926 51.6758 176.141 52.3711 176.141 53.1523H172.766C172.766 52.8242 172.695 52.5312 172.555 52.2734C172.422 52.0078 172.211 51.8008 171.922 51.6523C171.641 51.4961 171.273 51.418 170.82 51.418C170.445 51.418 170.121 51.4844 169.848 51.6172C169.574 51.7422 169.363 51.9141 169.215 52.1328C169.074 52.3438 169.004 52.5781 169.004 52.8359C169.004 53.0312 169.043 53.207 169.121 53.3633C169.207 53.5117 169.344 53.6484 169.531 53.7734C169.719 53.8984 169.961 54.0156 170.258 54.125C170.562 54.2266 170.938 54.3203 171.383 54.4062C172.297 54.5938 173.113 54.8398 173.832 55.1445C174.551 55.4414 175.121 55.8477 175.543 56.3633C175.965 56.8711 176.176 57.5391 176.176 58.3672C176.176 58.9297 176.051 59.4453 175.801 59.9141C175.551 60.3828 175.191 60.793 174.723 61.1445C174.254 61.4883 173.691 61.7578 173.035 61.9531C172.387 62.1406 171.656 62.2344 170.844 62.2344C169.664 62.2344 168.664 62.0234 167.844 61.6016C167.031 61.1797 166.414 60.6445 165.992 59.9961C165.578 59.3398 165.371 58.668 165.371 57.9805H168.57C168.586 58.4414 168.703 58.8125 168.922 59.0938C169.148 59.375 169.434 59.5781 169.777 59.7031C170.129 59.8281 170.508 59.8906 170.914 59.8906C171.352 59.8906 171.715 59.832 172.004 59.7148C172.293 59.5898 172.512 59.4258 172.66 59.2227C172.816 59.0117 172.895 58.7695 172.895 58.4961ZM184.578 49.3203V51.7109H177.195V49.3203H184.578ZM179.023 46.1914H182.398V58.1797C182.398 58.5469 182.445 58.8281 182.539 59.0234C182.641 59.2188 182.789 59.3555 182.984 59.4336C183.18 59.5039 183.426 59.5391 183.723 59.5391C183.934 59.5391 184.121 59.5312 184.285 59.5156C184.457 59.4922 184.602 59.4688 184.719 59.4453L184.73 61.9297C184.441 62.0234 184.129 62.0977 183.793 62.1523C183.457 62.207 183.086 62.2344 182.68 62.2344C181.938 62.2344 181.289 62.1133 180.734 61.8711C180.188 61.6211 179.766 61.2227 179.469 60.6758C179.172 60.1289 179.023 59.4102 179.023 58.5195V46.1914ZM190.262 60.5703L193.625 49.3203H197.246L192.148 63.9102C192.039 64.2305 191.891 64.5742 191.703 64.9414C191.523 65.3086 191.277 65.6562 190.965 65.9844C190.66 66.3203 190.273 66.5938 189.805 66.8047C189.344 67.0156 188.777 67.1211 188.105 67.1211C187.785 67.1211 187.523 67.1016 187.32 67.0625C187.117 67.0234 186.875 66.9688 186.594 66.8984V64.4258C186.68 64.4258 186.77 64.4258 186.863 64.4258C186.957 64.4336 187.047 64.4375 187.133 64.4375C187.578 64.4375 187.941 64.3867 188.223 64.2852C188.504 64.1836 188.73 64.0273 188.902 63.8164C189.074 63.6133 189.211 63.3477 189.312 63.0195L190.262 60.5703ZM188.855 49.3203L191.609 58.5078L192.09 62.082L189.793 62.3281L185.234 49.3203H188.855Z" fill="white" fill-opacity="0.5"/>
</g>
<g style="mix-blend-mode:exclusion">
<path d="M107.205 107.146H99.251V101.191H107.205C108.289 101.191 109.168 101.008 109.842 100.642C110.516 100.275 111.006 99.77 111.314 99.1255C111.636 98.4663 111.797 97.7266 111.797 96.9062C111.797 96.0273 111.636 95.2144 111.314 94.4673C111.006 93.7202 110.516 93.1196 109.842 92.6655C109.168 92.1968 108.289 91.9624 107.205 91.9624H102.151V118H94.439V86.0078H107.205C109.769 86.0078 111.973 86.4766 113.819 87.4141C115.679 88.3516 117.107 89.6406 118.104 91.2812C119.1 92.9072 119.598 94.7676 119.598 96.8623C119.598 98.9277 119.1 100.729 118.104 102.268C117.107 103.806 115.679 105.007 113.819 105.871C111.973 106.721 109.769 107.146 107.205 107.146ZM130.87 100.114V118H123.465V94.2256H130.386L130.87 100.114ZM137.901 94.0498L137.769 100.927C137.476 100.898 137.081 100.861 136.583 100.817C136.084 100.773 135.667 100.751 135.33 100.751C134.466 100.751 133.719 100.854 133.089 101.059C132.474 101.25 131.961 101.542 131.551 101.938C131.155 102.319 130.862 102.802 130.672 103.388C130.496 103.974 130.416 104.655 130.43 105.432L129.09 104.553C129.09 102.956 129.244 101.506 129.551 100.202C129.874 98.8838 130.328 97.7485 130.914 96.7964C131.5 95.8296 132.21 95.0898 133.045 94.5771C133.88 94.0498 134.817 93.7861 135.857 93.7861C136.224 93.7861 136.583 93.8081 136.934 93.8521C137.3 93.896 137.623 93.9619 137.901 94.0498ZM138.736 106.354V105.893C138.736 104.15 138.985 102.546 139.483 101.081C139.981 99.6016 140.713 98.3198 141.68 97.2358C142.647 96.1519 143.841 95.3096 145.262 94.709C146.683 94.0938 148.323 93.7861 150.184 93.7861C152.059 93.7861 153.707 94.0938 155.127 94.709C156.563 95.3096 157.764 96.1519 158.731 97.2358C159.698 98.3198 160.43 99.6016 160.928 101.081C161.426 102.546 161.675 104.15 161.675 105.893V106.354C161.675 108.083 161.426 109.687 160.928 111.167C160.43 112.631 159.698 113.913 158.731 115.012C157.764 116.096 156.57 116.938 155.149 117.539C153.729 118.139 152.088 118.439 150.228 118.439C148.367 118.439 146.719 118.139 145.284 117.539C143.848 116.938 142.647 116.096 141.68 115.012C140.713 113.913 139.981 112.631 139.483 111.167C138.985 109.687 138.736 108.083 138.736 106.354ZM146.141 105.893V106.354C146.141 107.248 146.207 108.083 146.338 108.859C146.47 109.636 146.69 110.317 146.998 110.903C147.305 111.474 147.723 111.921 148.25 112.243C148.777 112.565 149.437 112.727 150.228 112.727C151.004 112.727 151.648 112.565 152.161 112.243C152.688 111.921 153.106 111.474 153.414 110.903C153.721 110.317 153.941 109.636 154.073 108.859C154.205 108.083 154.271 107.248 154.271 106.354V105.893C154.271 105.029 154.205 104.216 154.073 103.454C153.941 102.678 153.721 101.997 153.414 101.411C153.106 100.81 152.688 100.341 152.161 100.004C151.634 99.6675 150.975 99.499 150.184 99.499C149.407 99.499 148.755 99.6675 148.228 100.004C147.715 100.341 147.305 100.81 146.998 101.411C146.69 101.997 146.47 102.678 146.338 103.454C146.207 104.216 146.141 105.029 146.141 105.893ZM177.496 94.2256V99.3672H163.169V94.2256H177.496ZM166.18 88.3149H173.584V110.244C173.584 110.874 173.658 111.364 173.804 111.716C173.951 112.053 174.2 112.294 174.551 112.441C174.917 112.573 175.401 112.639 176.001 112.639C176.426 112.639 176.778 112.631 177.056 112.617C177.334 112.587 177.598 112.551 177.847 112.507V117.802C177.217 118.007 176.558 118.161 175.87 118.264C175.181 118.381 174.449 118.439 173.672 118.439C172.09 118.439 170.735 118.19 169.607 117.692C168.494 117.194 167.645 116.411 167.059 115.341C166.473 114.272 166.18 112.88 166.18 111.167V88.3149ZM178.858 106.354V105.893C178.858 104.15 179.107 102.546 179.605 101.081C180.103 99.6016 180.835 98.3198 181.802 97.2358C182.769 96.1519 183.963 95.3096 185.384 94.709C186.805 94.0938 188.445 93.7861 190.306 93.7861C192.181 93.7861 193.829 94.0938 195.25 94.709C196.685 95.3096 197.886 96.1519 198.853 97.2358C199.82 98.3198 200.552 99.6016 201.05 101.081C201.548 102.546 201.797 104.15 201.797 105.893V106.354C201.797 108.083 201.548 109.687 201.05 111.167C200.552 112.631 199.82 113.913 198.853 115.012C197.886 116.096 196.692 116.938 195.271 117.539C193.851 118.139 192.21 118.439 190.35 118.439C188.489 118.439 186.841 118.139 185.406 117.539C183.97 116.938 182.769 116.096 181.802 115.012C180.835 113.913 180.103 112.631 179.605 111.167C179.107 109.687 178.858 108.083 178.858 106.354ZM186.263 105.893V106.354C186.263 107.248 186.329 108.083 186.46 108.859C186.592 109.636 186.812 110.317 187.12 110.903C187.427 111.474 187.845 111.921 188.372 112.243C188.899 112.565 189.559 112.727 190.35 112.727C191.126 112.727 191.771 112.565 192.283 112.243C192.811 111.921 193.228 111.474 193.536 110.903C193.843 110.317 194.063 109.636 194.195 108.859C194.327 108.083 194.393 107.248 194.393 106.354V105.893C194.393 105.029 194.327 104.216 194.195 103.454C194.063 102.678 193.843 101.997 193.536 101.411C193.228 100.81 192.811 100.341 192.283 100.004C191.756 99.6675 191.097 99.499 190.306 99.499C189.529 99.499 188.877 99.6675 188.35 100.004C187.837 100.341 187.427 100.81 187.12 101.411C186.812 101.997 186.592 102.678 186.46 103.454C186.329 104.216 186.263 105.029 186.263 105.893ZM217.618 94.2256V99.3672H203.292V94.2256H217.618ZM206.302 88.3149H213.707V110.244C213.707 110.874 213.78 111.364 213.926 111.716C214.073 112.053 214.322 112.294 214.673 112.441C215.04 112.573 215.523 112.639 216.124 112.639C216.548 112.639 216.9 112.631 217.178 112.617C217.457 112.587 217.72 112.551 217.969 112.507V117.802C217.339 118.007 216.68 118.161 215.992 118.264C215.303 118.381 214.571 118.439 213.794 118.439C212.212 118.439 210.857 118.19 209.729 117.692C208.616 117.194 207.767 116.411 207.181 115.341C206.595 114.272 206.302 112.88 206.302 111.167V88.3149ZM227.857 115.209L234.009 94.2256H241.963L232.405 121.538C232.2 122.138 231.929 122.783 231.592 123.471C231.255 124.174 230.794 124.841 230.208 125.471C229.622 126.101 228.868 126.613 227.945 127.009C227.037 127.404 225.909 127.602 224.561 127.602C223.843 127.602 223.316 127.565 222.979 127.492C222.657 127.434 222.159 127.324 221.485 127.163V121.867C221.675 121.867 221.836 121.867 221.968 121.867C222.115 121.867 222.276 121.867 222.452 121.867C223.243 121.867 223.873 121.787 224.341 121.625C224.825 121.464 225.191 121.23 225.44 120.922C225.704 120.615 225.909 120.241 226.055 119.802L227.857 115.209ZM226.297 94.2256L230.977 110.859L231.79 118.703H226.824L218.365 94.2256H226.297ZM251.368 98.7959V127.141H243.963V94.2256H250.862L251.368 98.7959ZM265.958 105.827V106.289C265.958 108.017 265.76 109.621 265.364 111.101C264.969 112.58 264.383 113.869 263.606 114.968C262.83 116.066 261.863 116.923 260.706 117.539C259.563 118.139 258.238 118.439 256.729 118.439C255.308 118.439 254.085 118.125 253.06 117.495C252.034 116.865 251.177 115.993 250.489 114.88C249.8 113.767 249.244 112.492 248.819 111.057C248.394 109.621 248.057 108.105 247.808 106.508V105.915C248.057 104.201 248.394 102.612 248.819 101.147C249.244 99.6675 249.8 98.3784 250.489 97.2798C251.177 96.1812 252.027 95.3242 253.038 94.709C254.063 94.0938 255.286 93.7861 256.707 93.7861C258.216 93.7861 259.542 94.0718 260.684 94.6431C261.841 95.2144 262.808 96.0347 263.584 97.104C264.375 98.1587 264.969 99.4258 265.364 100.905C265.76 102.385 265.958 104.025 265.958 105.827ZM258.553 106.289V105.827C258.553 104.904 258.487 104.062 258.355 103.3C258.223 102.524 258.011 101.85 257.718 101.279C257.439 100.708 257.066 100.268 256.597 99.9604C256.128 99.6528 255.55 99.499 254.861 99.499C254.07 99.499 253.404 99.6235 252.862 99.8726C252.334 100.107 251.91 100.473 251.587 100.971C251.28 101.455 251.06 102.062 250.928 102.795C250.811 103.513 250.76 104.355 250.774 105.322V107.124C250.745 108.237 250.855 109.218 251.104 110.068C251.353 110.903 251.785 111.555 252.4 112.023C253.016 112.492 253.851 112.727 254.905 112.727C255.608 112.727 256.194 112.565 256.663 112.243C257.132 111.906 257.505 111.445 257.784 110.859C258.062 110.258 258.26 109.57 258.377 108.793C258.494 108.017 258.553 107.182 258.553 106.289ZM277.076 94.2256V118H269.649V94.2256H277.076ZM269.209 88.0952C269.209 87.0405 269.59 86.1763 270.352 85.5024C271.114 84.8286 272.103 84.4917 273.318 84.4917C274.534 84.4917 275.523 84.8286 276.285 85.5024C277.046 86.1763 277.427 87.0405 277.427 88.0952C277.427 89.1499 277.046 90.0142 276.285 90.688C275.523 91.3618 274.534 91.6987 273.318 91.6987C272.103 91.6987 271.114 91.3618 270.352 90.688C269.59 90.0142 269.209 89.1499 269.209 88.0952ZM288.919 99.3013V118H281.514V94.2256H288.458L288.919 99.3013ZM288.04 105.3L286.304 105.344C286.304 103.527 286.524 101.909 286.963 100.488C287.403 99.0522 288.025 97.8364 288.831 96.8403C289.637 95.8442 290.596 95.0898 291.709 94.5771C292.837 94.0498 294.09 93.7861 295.467 93.7861C296.565 93.7861 297.569 93.9473 298.477 94.2695C299.4 94.5918 300.191 95.1118 300.85 95.8296C301.524 96.5474 302.037 97.4995 302.388 98.686C302.754 99.8579 302.938 101.308 302.938 103.037V118H295.489V103.015C295.489 102.062 295.357 101.337 295.093 100.839C294.83 100.327 294.449 99.9751 293.951 99.7847C293.453 99.5942 292.845 99.499 292.127 99.499C291.365 99.499 290.721 99.6455 290.193 99.9385C289.666 100.231 289.241 100.642 288.919 101.169C288.611 101.682 288.384 102.29 288.238 102.993C288.106 103.696 288.04 104.465 288.04 105.3ZM321.988 94.2256H328.711V117.077C328.711 119.274 328.206 121.135 327.195 122.658C326.185 124.196 324.771 125.361 322.955 126.152C321.153 126.958 319.043 127.36 316.626 127.36C315.557 127.36 314.466 127.221 313.353 126.943C312.239 126.679 311.199 126.284 310.232 125.756C309.266 125.229 308.453 124.577 307.793 123.801L310.892 119.45C311.492 120.124 312.247 120.695 313.155 121.164C314.063 121.647 315.132 121.889 316.363 121.889C317.432 121.889 318.326 121.699 319.043 121.318C319.776 120.937 320.333 120.38 320.713 119.648C321.094 118.93 321.285 118.059 321.285 117.033V99.8506L321.988 94.2256ZM306.189 106.398V105.937C306.189 104.135 306.409 102.495 306.849 101.015C307.303 99.521 307.947 98.2393 308.782 97.1699C309.632 96.0859 310.657 95.251 311.858 94.665C313.06 94.0791 314.415 93.7861 315.923 93.7861C317.549 93.7861 318.882 94.1011 319.922 94.731C320.977 95.3462 321.819 96.2104 322.449 97.3237C323.094 98.437 323.592 99.7407 323.943 101.235C324.31 102.714 324.617 104.311 324.866 106.025V106.574C324.617 108.186 324.273 109.709 323.833 111.145C323.409 112.565 322.852 113.825 322.164 114.924C321.475 116.022 320.611 116.887 319.571 117.517C318.545 118.132 317.315 118.439 315.879 118.439C314.385 118.439 313.038 118.139 311.836 117.539C310.65 116.938 309.632 116.096 308.782 115.012C307.947 113.928 307.303 112.653 306.849 111.188C306.409 109.724 306.189 108.127 306.189 106.398ZM313.594 105.937V106.398C313.594 107.292 313.675 108.12 313.836 108.881C314.012 109.643 314.275 110.317 314.627 110.903C314.979 111.474 315.411 111.921 315.923 112.243C316.451 112.565 317.066 112.727 317.769 112.727C318.838 112.727 319.703 112.5 320.362 112.045C321.021 111.591 321.497 110.947 321.79 110.112C322.083 109.277 322.208 108.295 322.164 107.167V105.432C322.193 104.465 322.127 103.615 321.966 102.883C321.805 102.136 321.548 101.513 321.197 101.015C320.86 100.517 320.406 100.144 319.834 99.8945C319.278 99.6309 318.604 99.499 317.813 99.499C317.125 99.499 316.517 99.6602 315.989 99.9824C315.462 100.305 315.022 100.759 314.671 101.345C314.319 101.916 314.048 102.597 313.858 103.388C313.682 104.165 313.594 105.014 313.594 105.937Z" fill="white"/>
</g>
<path d="M1363 15C1363 6.71573 1356.28 0 1348 0H1134V167H1348C1356.28 167 1363 160.284 1363 152V15Z" fill="#03A9F4"/>
<path fill-rule="evenodd" clip-rule="evenodd" d="M1203 49C1203 47.8954 1203.9 47 1205 47H1292.5C1293.6 47 1294.5 47.8954 1294.5 49V118.996C1294.5 120.101 1293.6 120.996 1292.5 120.996H1205C1203.9 120.996 1203 120.101 1203 118.996V49ZM1207 51V55.4945H1290.5V51H1207ZM1290.5 59.4945H1235.44V116.996H1290.5V59.4945ZM1231.44 116.996V59.4945H1207V116.996H1231.44Z" fill="white"/>
<path fill-rule="evenodd" clip-rule="evenodd" d="M1209.97 64.8004C1209.97 63.6958 1210.87 62.8004 1211.97 62.8004H1225.97C1227.08 62.8004 1227.97 63.6958 1227.97 64.8004V84.1956C1227.97 85.3001 1227.08 86.1956 1225.97 86.1956H1211.97C1210.87 86.1956 1209.97 85.3001 1209.97 84.1956V64.8004ZM1213.97 66.8004V82.1956H1223.97V66.8004H1213.97ZM1239.58 65.6964C1239.58 64.5918 1240.47 63.6964 1241.58 63.6964H1284.5C1285.61 63.6964 1286.5 64.5918 1286.5 65.6964V111.905C1286.5 113.01 1285.61 113.905 1284.5 113.905H1241.58C1240.47 113.905 1239.58 113.01 1239.58 111.905V65.6964ZM1243.58 67.6964V109.905H1282.5V67.6964H1243.58ZM1209.81 95.9363C1209.81 94.8317 1210.71 93.9363 1211.81 93.9363H1220.73C1221.84 93.9363 1222.73 94.8317 1222.73 95.9363C1222.73 97.0409 1221.84 97.9363 1220.73 97.9363H1211.81C1210.71 97.9363 1209.81 97.0409 1209.81 95.9363ZM1209.81 102.936C1209.81 101.832 1210.71 100.936 1211.81 100.936H1226.35C1227.46 100.936 1228.35 101.832 1228.35 102.936C1228.35 104.041 1227.46 104.936 1226.35 104.936H1211.81C1210.71 104.936 1209.81 104.041 1209.81 102.936ZM1209.81 109.936C1209.81 108.832 1210.71 107.936 1211.81 107.936H1220.73C1221.84 107.936 1222.73 108.832 1222.73 109.936C1222.73 111.041 1221.84 111.936 1220.73 111.936H1211.81C1210.71 111.936 1209.81 111.041 1209.81 109.936Z" fill="white"/>
</svg>
