<svg width="1363" height="167" viewBox="0 0 1363 167" fill="none" xmlns="http://www.w3.org/2000/svg">
<g style="mix-blend-mode:exclusion">
<rect width="1363" height="167" rx="15" fill="white" fill-opacity="0.05"/>
</g>
<g style="mix-blend-mode:exclusion">
<path d="M0 15C0 6.71573 6.71573 0 15 0H37V167H15C6.71573 167 0 160.284 0 152V15Z" fill="white" fill-opacity="0.25"/>
</g>
<g style="mix-blend-mode:exclusion">
<path d="M100.906 50.9219L93.3945 48.2383V45.0859L103.602 49.375V51.6367L100.906 50.9219ZM93.3945 53.1719L100.918 50.4297L103.602 49.7852V52.0352L93.3945 56.3242V53.1719ZM118.895 40.9375V58H115.391V40.9375H118.895ZM124.145 40.9375V43.6914H110.223V40.9375H124.145ZM123.359 51.7891V51.543C123.359 50.6133 123.492 49.7578 123.758 48.9766C124.023 48.1875 124.41 47.5039 124.918 46.9258C125.426 46.3477 126.051 45.8984 126.793 45.5781C127.535 45.25 128.387 45.0859 129.348 45.0859C130.309 45.0859 131.164 45.25 131.914 45.5781C132.664 45.8984 133.293 46.3477 133.801 46.9258C134.316 47.5039 134.707 48.1875 134.973 48.9766C135.238 49.7578 135.371 50.6133 135.371 51.543V51.7891C135.371 52.7109 135.238 53.5664 134.973 54.3555C134.707 55.1367 134.316 55.8203 133.801 56.4062C133.293 56.9844 132.668 57.4336 131.926 57.7539C131.184 58.0742 130.332 58.2344 129.371 58.2344C128.41 58.2344 127.555 58.0742 126.805 57.7539C126.062 57.4336 125.434 56.9844 124.918 56.4062C124.41 55.8203 124.023 55.1367 123.758 54.3555C123.492 53.5664 123.359 52.7109 123.359 51.7891ZM126.734 51.543V51.7891C126.734 52.3203 126.781 52.8164 126.875 53.2773C126.969 53.7383 127.117 54.1445 127.32 54.4961C127.531 54.8398 127.805 55.1094 128.141 55.3047C128.477 55.5 128.887 55.5977 129.371 55.5977C129.84 55.5977 130.242 55.5 130.578 55.3047C130.914 55.1094 131.184 54.8398 131.387 54.4961C131.59 54.1445 131.738 53.7383 131.832 53.2773C131.934 52.8164 131.984 52.3203 131.984 51.7891V51.543C131.984 51.0273 131.934 50.543 131.832 50.0898C131.738 49.6289 131.586 49.2227 131.375 48.8711C131.172 48.5117 130.902 48.2305 130.566 48.0273C130.23 47.8242 129.824 47.7227 129.348 47.7227C128.871 47.7227 128.465 47.8242 128.129 48.0273C127.801 48.2305 127.531 48.5117 127.32 48.8711C127.117 49.2227 126.969 49.6289 126.875 50.0898C126.781 50.543 126.734 51.0273 126.734 51.543ZM144.945 54.9648V45.3203H148.32V58H145.145L144.945 54.9648ZM145.32 52.3633L146.316 52.3398C146.316 53.1836 146.219 53.9688 146.023 54.6953C145.828 55.4141 145.535 56.0391 145.145 56.5703C144.754 57.0938 144.262 57.5039 143.668 57.8008C143.074 58.0898 142.375 58.2344 141.57 58.2344C140.953 58.2344 140.383 58.1484 139.859 57.9766C139.344 57.7969 138.898 57.5195 138.523 57.1445C138.156 56.7617 137.867 56.2734 137.656 55.6797C137.453 55.0781 137.352 54.3555 137.352 53.5117V45.3203H140.727V53.5352C140.727 53.9102 140.77 54.2266 140.855 54.4844C140.949 54.7422 141.078 54.9531 141.242 55.1172C141.406 55.2812 141.598 55.3984 141.816 55.4688C142.043 55.5391 142.293 55.5742 142.566 55.5742C143.262 55.5742 143.809 55.4336 144.207 55.1523C144.613 54.8711 144.898 54.4883 145.062 54.0039C145.234 53.5117 145.32 52.9648 145.32 52.3633ZM154.273 48.0859V58H150.898V45.3203H154.074L154.273 48.0859ZM158.094 45.2383L158.035 48.3672C157.871 48.3438 157.672 48.3242 157.438 48.3086C157.211 48.2852 157.004 48.2734 156.816 48.2734C156.34 48.2734 155.926 48.3359 155.574 48.4609C155.23 48.5781 154.941 48.7539 154.707 48.9883C154.48 49.2227 154.309 49.5078 154.191 49.8438C154.082 50.1797 154.02 50.5625 154.004 50.9922L153.324 50.7812C153.324 49.9609 153.406 49.207 153.57 48.5195C153.734 47.8242 153.973 47.2188 154.285 46.7031C154.605 46.1875 154.996 45.7891 155.457 45.5078C155.918 45.2266 156.445 45.0859 157.039 45.0859C157.227 45.0859 157.418 45.1016 157.613 45.1328C157.809 45.1562 157.969 45.1914 158.094 45.2383ZM163.25 45.3203V58H159.863V45.3203H163.25ZM159.652 42.0156C159.652 41.5234 159.824 41.1172 160.168 40.7969C160.512 40.4766 160.973 40.3164 161.551 40.3164C162.121 40.3164 162.578 40.4766 162.922 40.7969C163.273 41.1172 163.449 41.5234 163.449 42.0156C163.449 42.5078 163.273 42.9141 162.922 43.2344C162.578 43.5547 162.121 43.7148 161.551 43.7148C160.973 43.7148 160.512 43.5547 160.168 43.2344C159.824 42.9141 159.652 42.5078 159.652 42.0156ZM172.895 54.4961C172.895 54.2539 172.824 54.0352 172.684 53.8398C172.543 53.6445 172.281 53.4648 171.898 53.3008C171.523 53.1289 170.98 52.9727 170.27 52.832C169.629 52.6914 169.031 52.5156 168.477 52.3047C167.93 52.0859 167.453 51.8242 167.047 51.5195C166.648 51.2148 166.336 50.8555 166.109 50.4414C165.883 50.0195 165.77 49.5391 165.77 49C165.77 48.4688 165.883 47.9688 166.109 47.5C166.344 47.0312 166.676 46.6172 167.105 46.2578C167.543 45.8906 168.074 45.6055 168.699 45.4023C169.332 45.1914 170.043 45.0859 170.832 45.0859C171.934 45.0859 172.879 45.2617 173.668 45.6133C174.465 45.9648 175.074 46.4492 175.496 47.0664C175.926 47.6758 176.141 48.3711 176.141 49.1523H172.766C172.766 48.8242 172.695 48.5312 172.555 48.2734C172.422 48.0078 172.211 47.8008 171.922 47.6523C171.641 47.4961 171.273 47.418 170.82 47.418C170.445 47.418 170.121 47.4844 169.848 47.6172C169.574 47.7422 169.363 47.9141 169.215 48.1328C169.074 48.3438 169.004 48.5781 169.004 48.8359C169.004 49.0312 169.043 49.207 169.121 49.3633C169.207 49.5117 169.344 49.6484 169.531 49.7734C169.719 49.8984 169.961 50.0156 170.258 50.125C170.562 50.2266 170.938 50.3203 171.383 50.4062C172.297 50.5938 173.113 50.8398 173.832 51.1445C174.551 51.4414 175.121 51.8477 175.543 52.3633C175.965 52.8711 176.176 53.5391 176.176 54.3672C176.176 54.9297 176.051 55.4453 175.801 55.9141C175.551 56.3828 175.191 56.793 174.723 57.1445C174.254 57.4883 173.691 57.7578 173.035 57.9531C172.387 58.1406 171.656 58.2344 170.844 58.2344C169.664 58.2344 168.664 58.0234 167.844 57.6016C167.031 57.1797 166.414 56.6445 165.992 55.9961C165.578 55.3398 165.371 54.668 165.371 53.9805H168.57C168.586 54.4414 168.703 54.8125 168.922 55.0938C169.148 55.375 169.434 55.5781 169.777 55.7031C170.129 55.8281 170.508 55.8906 170.914 55.8906C171.352 55.8906 171.715 55.832 172.004 55.7148C172.293 55.5898 172.512 55.4258 172.66 55.2227C172.816 55.0117 172.895 54.7695 172.895 54.4961ZM184.578 45.3203V47.7109H177.195V45.3203H184.578ZM179.023 42.1914H182.398V54.1797C182.398 54.5469 182.445 54.8281 182.539 55.0234C182.641 55.2188 182.789 55.3555 182.984 55.4336C183.18 55.5039 183.426 55.5391 183.723 55.5391C183.934 55.5391 184.121 55.5312 184.285 55.5156C184.457 55.4922 184.602 55.4688 184.719 55.4453L184.73 57.9297C184.441 58.0234 184.129 58.0977 183.793 58.1523C183.457 58.207 183.086 58.2344 182.68 58.2344C181.938 58.2344 181.289 58.1133 180.734 57.8711C180.188 57.6211 179.766 57.2227 179.469 56.6758C179.172 56.1289 179.023 55.4102 179.023 54.5195V42.1914ZM190.262 56.5703L193.625 45.3203H197.246L192.148 59.9102C192.039 60.2305 191.891 60.5742 191.703 60.9414C191.523 61.3086 191.277 61.6562 190.965 61.9844C190.66 62.3203 190.273 62.5938 189.805 62.8047C189.344 63.0156 188.777 63.1211 188.105 63.1211C187.785 63.1211 187.523 63.1016 187.32 63.0625C187.117 63.0234 186.875 62.9688 186.594 62.8984V60.4258C186.68 60.4258 186.77 60.4258 186.863 60.4258C186.957 60.4336 187.047 60.4375 187.133 60.4375C187.578 60.4375 187.941 60.3867 188.223 60.2852C188.504 60.1836 188.73 60.0273 188.902 59.8164C189.074 59.6133 189.211 59.3477 189.312 59.0195L190.262 56.5703ZM188.855 45.3203L191.609 54.5078L192.09 58.082L189.793 58.3281L185.234 45.3203H188.855Z" fill="white" fill-opacity="0.5"/>
</g>
<g style="mix-blend-mode:exclusion">
<path d="M115.994 98.708V104.641H99.5806V98.708H115.994ZM102.151 86.0078V118H94.439V86.0078H102.151ZM121.18 86.0078V118H113.489V86.0078H121.18ZM124.805 106.354V105.893C124.805 104.15 125.054 102.546 125.552 101.081C126.05 99.6016 126.783 98.3198 127.75 97.2358C128.716 96.1519 129.91 95.3096 131.331 94.709C132.752 94.0938 134.393 93.7861 136.253 93.7861C138.128 93.7861 139.776 94.0938 141.197 94.709C142.632 95.3096 143.833 96.1519 144.8 97.2358C145.767 98.3198 146.5 99.6016 146.998 101.081C147.496 102.546 147.745 104.15 147.745 105.893V106.354C147.745 108.083 147.496 109.687 146.998 111.167C146.5 112.631 145.767 113.913 144.8 115.012C143.833 116.096 142.64 116.938 141.219 117.539C139.798 118.139 138.157 118.439 136.297 118.439C134.437 118.439 132.789 118.139 131.353 117.539C129.917 116.938 128.716 116.096 127.75 115.012C126.783 113.913 126.05 112.631 125.552 111.167C125.054 109.687 124.805 108.083 124.805 106.354ZM132.21 105.893V106.354C132.21 107.248 132.276 108.083 132.408 108.859C132.54 109.636 132.759 110.317 133.067 110.903C133.375 111.474 133.792 111.921 134.319 112.243C134.847 112.565 135.506 112.727 136.297 112.727C137.073 112.727 137.718 112.565 138.23 112.243C138.758 111.921 139.175 111.474 139.483 110.903C139.791 110.317 140.01 109.636 140.142 108.859C140.274 108.083 140.34 107.248 140.34 106.354V105.893C140.34 105.029 140.274 104.216 140.142 103.454C140.01 102.678 139.791 101.997 139.483 101.411C139.175 100.81 138.758 100.341 138.23 100.004C137.703 99.6675 137.044 99.499 136.253 99.499C135.477 99.499 134.825 99.6675 134.297 100.004C133.785 100.341 133.375 100.81 133.067 101.411C132.759 101.997 132.54 102.678 132.408 103.454C132.276 104.216 132.21 105.029 132.21 105.893ZM158.27 110.925L162.664 94.2256H167.3L165.652 102.597L161.302 118H157.588L158.27 110.925ZM156.534 94.2256L159.258 110.793L159.566 118H155.062L149.437 94.2256H156.534ZM171.211 110.441L173.958 94.2256H181.055L175.474 118H170.97L171.211 110.441ZM167.828 94.2256L172.266 110.881L172.947 118H169.19L164.927 102.641L163.345 94.2256H167.828ZM209.466 86.0078V118H201.753V86.0078H209.466ZM219.09 86.0078V91.9624H192.349V86.0078H219.09ZM216.475 106.354V105.893C216.475 104.15 216.724 102.546 217.222 101.081C217.72 99.6016 218.453 98.3198 219.419 97.2358C220.386 96.1519 221.58 95.3096 223.001 94.709C224.422 94.0938 226.062 93.7861 227.923 93.7861C229.798 93.7861 231.446 94.0938 232.867 94.709C234.302 95.3096 235.503 96.1519 236.47 97.2358C237.437 98.3198 238.169 99.6016 238.667 101.081C239.166 102.546 239.415 104.15 239.415 105.893V106.354C239.415 108.083 239.166 109.687 238.667 111.167C238.169 112.631 237.437 113.913 236.47 115.012C235.503 116.096 234.31 116.938 232.889 117.539C231.468 118.139 229.827 118.439 227.967 118.439C226.106 118.439 224.458 118.139 223.023 117.539C221.587 116.938 220.386 116.096 219.419 115.012C218.453 113.913 217.72 112.631 217.222 111.167C216.724 109.687 216.475 108.083 216.475 106.354ZM223.88 105.893V106.354C223.88 107.248 223.946 108.083 224.078 108.859C224.209 109.636 224.429 110.317 224.737 110.903C225.044 111.474 225.462 111.921 225.989 112.243C226.517 112.565 227.176 112.727 227.967 112.727C228.743 112.727 229.388 112.565 229.9 112.243C230.428 111.921 230.845 111.474 231.153 110.903C231.46 110.317 231.68 109.636 231.812 108.859C231.944 108.083 232.01 107.248 232.01 106.354V105.893C232.01 105.029 231.944 104.216 231.812 103.454C231.68 102.678 231.46 101.997 231.153 101.411C230.845 100.81 230.428 100.341 229.9 100.004C229.373 99.6675 228.714 99.499 227.923 99.499C227.146 99.499 226.495 99.6675 225.967 100.004C225.455 100.341 225.044 100.81 224.737 101.411C224.429 101.997 224.209 102.678 224.078 103.454C223.946 104.216 223.88 105.029 223.88 105.893ZM254.268 86.0078H266.858C269.319 86.0078 271.458 86.374 273.274 87.1064C275.091 87.8389 276.49 88.9229 277.471 90.3584C278.467 91.7939 278.965 93.5664 278.965 95.6758C278.965 97.5068 278.68 99.0376 278.108 100.268C277.537 101.499 276.739 102.517 275.713 103.322C274.703 104.113 273.523 104.765 272.176 105.278L269.649 106.706H259.08L259.036 100.751H266.858C267.84 100.751 268.653 100.576 269.297 100.224C269.942 99.8726 270.425 99.3745 270.748 98.73C271.084 98.0708 271.253 97.2871 271.253 96.3789C271.253 95.4561 271.084 94.665 270.748 94.0059C270.411 93.3467 269.913 92.8413 269.253 92.4897C268.609 92.1382 267.811 91.9624 266.858 91.9624H261.98V118H254.268V86.0078ZM271.78 118L264.705 103.85L272.879 103.806L280.042 117.67V118H271.78ZM297.159 112.221V94.2256H304.585V118H297.642L297.159 112.221ZM297.862 107.387L299.795 107.343C299.795 108.94 299.605 110.419 299.224 111.782C298.843 113.129 298.279 114.301 297.532 115.297C296.8 116.293 295.892 117.07 294.808 117.626C293.738 118.168 292.5 118.439 291.094 118.439C289.922 118.439 288.846 118.278 287.864 117.956C286.897 117.619 286.062 117.099 285.359 116.396C284.656 115.678 284.107 114.763 283.711 113.649C283.331 112.521 283.14 111.174 283.14 109.606V94.2256H290.545V109.65C290.545 110.178 290.611 110.632 290.743 111.013C290.875 111.394 291.065 111.716 291.314 111.979C291.563 112.229 291.871 112.419 292.237 112.551C292.618 112.668 293.05 112.727 293.533 112.727C294.646 112.727 295.518 112.492 296.148 112.023C296.778 111.555 297.217 110.917 297.466 110.112C297.73 109.306 297.862 108.398 297.862 107.387ZM315.945 99.3013V118H308.541V94.2256H315.484L315.945 99.3013ZM315.066 105.3L313.331 105.344C313.331 103.527 313.55 101.909 313.99 100.488C314.429 99.0522 315.052 97.8364 315.857 96.8403C316.663 95.8442 317.623 95.0898 318.736 94.5771C319.864 94.0498 321.116 93.7861 322.493 93.7861C323.592 93.7861 324.595 93.9473 325.503 94.2695C326.426 94.5918 327.217 95.1118 327.876 95.8296C328.55 96.5474 329.063 97.4995 329.415 98.686C329.781 99.8579 329.964 101.308 329.964 103.037V118H322.515V103.015C322.515 102.062 322.383 101.337 322.12 100.839C321.856 100.327 321.475 99.9751 320.977 99.7847C320.479 99.5942 319.871 99.499 319.153 99.499C318.392 99.499 317.747 99.6455 317.22 99.9385C316.692 100.231 316.268 100.642 315.945 101.169C315.638 101.682 315.411 102.29 315.264 102.993C315.132 103.696 315.066 104.465 315.066 105.3ZM345.85 107.871H339.544C339.544 106.582 339.632 105.446 339.808 104.465C339.998 103.469 340.32 102.575 340.774 101.784C341.229 100.993 341.844 100.261 342.62 99.5869C343.309 99.0156 343.902 98.4663 344.4 97.939C344.898 97.4116 345.279 96.877 345.542 96.335C345.806 95.793 345.938 95.2144 345.938 94.5991C345.938 93.8374 345.828 93.2148 345.608 92.7314C345.403 92.248 345.088 91.8892 344.664 91.6548C344.253 91.4058 343.733 91.2812 343.104 91.2812C342.591 91.2812 342.107 91.4058 341.653 91.6548C341.214 91.9038 340.855 92.292 340.577 92.8193C340.298 93.332 340.145 94.0132 340.115 94.8628H332.667C332.71 92.6802 333.194 90.9077 334.117 89.5454C335.054 88.1685 336.299 87.165 337.852 86.5352C339.419 85.8906 341.17 85.5684 343.104 85.5684C345.242 85.5684 347.081 85.8979 348.619 86.5571C350.157 87.2163 351.336 88.1978 352.156 89.5015C352.977 90.7905 353.387 92.3799 353.387 94.2695C353.387 95.5293 353.145 96.6279 352.662 97.5654C352.193 98.4883 351.556 99.3525 350.75 100.158C349.959 100.949 349.073 101.799 348.091 102.707C347.242 103.454 346.663 104.216 346.355 104.992C346.048 105.754 345.879 106.713 345.85 107.871ZM338.643 114.55C338.643 113.496 339.024 112.617 339.786 111.914C340.547 111.196 341.536 110.837 342.752 110.837C343.968 110.837 344.957 111.196 345.718 111.914C346.48 112.617 346.861 113.496 346.861 114.55C346.861 115.605 346.48 116.491 345.718 117.209C344.957 117.912 343.968 118.264 342.752 118.264C341.536 118.264 340.547 117.912 339.786 117.209C339.024 116.491 338.643 115.605 338.643 114.55Z" fill="white"/>
</g>
<path d="M1363 15C1363 6.71573 1356.28 0 1348 0H1134V167H1348C1356.28 167 1363 160.284 1363 152V15Z" fill="#03A9F4"/>
<path d="M1260.77 81.3079C1263.96 81.3079 1267.09 82.2553 1269.74 84.0303C1272.4 85.8053 1274.47 88.3282 1275.69 91.2799C1276.92 94.2316 1277.24 97.4796 1276.61 100.613C1275.99 103.747 1274.45 106.625 1272.19 108.884C1269.93 111.143 1267.05 112.682 1263.92 113.305C1260.79 113.928 1257.54 113.608 1254.59 112.386C1251.64 111.163 1249.11 109.093 1247.34 106.436C1245.56 103.78 1244.62 100.657 1244.62 97.4617C1244.62 93.1774 1246.32 89.0686 1249.35 86.0392C1252.38 83.0098 1256.48 81.3079 1260.77 81.3079ZM1260.77 75.9233C1256.51 75.9233 1252.35 77.1865 1248.8 79.5532C1245.26 81.9198 1242.5 85.2837 1240.87 89.2193C1239.24 93.1549 1238.81 97.4856 1239.64 101.664C1240.48 105.842 1242.53 109.679 1245.54 112.692C1248.55 115.704 1252.39 117.755 1256.57 118.586C1260.75 119.417 1265.08 118.991 1269.01 117.361C1272.95 115.73 1276.31 112.97 1278.68 109.428C1281.04 105.886 1282.31 101.722 1282.31 97.4617C1282.31 91.7493 1280.04 86.271 1276 82.2317C1271.96 78.1925 1266.48 75.9233 1260.77 75.9233Z" fill="white"/>
<path d="M1274.23 49H1220.38C1218.96 49 1217.59 49.5673 1216.58 50.5771C1215.57 51.5869 1215 52.9565 1215 54.3846V108.231C1215 109.659 1215.57 111.028 1216.58 112.038C1217.59 113.048 1218.96 113.615 1220.38 113.615H1231.15V108.231H1220.38V70.5384H1279.62V54.3846C1279.62 52.9565 1279.05 51.5869 1278.04 50.5771C1277.03 49.5673 1275.66 49 1274.23 49ZM1220.38 65.1538V54.3846H1274.23V65.1538H1220.38Z" fill="white"/>
<path d="M1255.39 89.3849V105.539L1268.85 97.4618L1255.39 89.3849Z" fill="white"/>
</svg>
